<svg xmlns="http://www.w3.org/2000/svg" viewBox="0 0 500 500"><g id="freepik--Floor--inject-18"><path id="freepik--floor--inject-18" d="M77.66,236.62c-95.18,54.95-95.17,144.05,0,199s249.49,54.95,344.67,0,95.17-144,0-199S172.84,181.67,77.66,236.62Z" style="fill:#f5f5f5"></path></g><g id="freepik--Plants--inject-18"><g id="freepik--plants--inject-18"><path d="M479.37,355.6a6.8,6.8,0,0,0-4.23-5.32c-4.07-1.82-10.3.77-16.18,6.19-.68.63-1.36,1.29-2,2a50,50,0,0,0-5.3,6.66,48.4,48.4,0,0,0-6.08,12.55c-.41,1.33-.73,2.6-1,3.8a32.07,32.07,0,0,0-.55,10.79c.07.47.13.72.13.74a.39.39,0,0,0,.23.27.32.32,0,0,0,.09,0l1.82.68,2.58,1,.16,0a.53.53,0,0,0,.18-.05.45.45,0,0,0,.2-.28c3.16-15.85,18-26,24.36-30.33,1-.71,1.84-1.26,2.36-1.67A7.9,7.9,0,0,0,479.37,355.6ZM475.63,362c-.51.4-1.31.94-2.32,1.63-6.36,4.35-21.18,14.47-24.6,30.39l-1.82-.68-.77-.29-1.24-.46c-.31-1.66-1.92-13.08,7.41-27a50.6,50.6,0,0,1,5.2-6.55l.12-.12c6.15-6.46,13-9.79,17.21-7.9a5.94,5.94,0,0,1,3.76,4.69A7.11,7.11,0,0,1,475.63,362Z" style="fill:#407BFF"></path><path d="M471.9,356.18c-9,2.74-23.33,19.53-25,37.19l0,.3a.41.41,0,0,1-.38.37h-.05a.42.42,0,0,1-.15,0,.39.39,0,0,1-.22-.39c0-.17,0-.35.06-.52,1.86-18.53,16.52-34.9,25.54-37.66a.4.4,0,1,1,.24.76Z" style="fill:#407BFF"></path><path d="M468,345a96.79,96.79,0,0,0-9,11.48,26.35,26.35,0,0,0-1.33,2.4l0,0-.12.12a.41.41,0,0,1-.39,0,.4.4,0,0,1-.19-.53s0,0,0,0c2.2-4.5,6.38-9.33,10.44-14,5.64-6.5,11-12.64,10.22-17a5.21,5.21,0,0,0-2.9-3.62,11.3,11.3,0,0,0-10.31-.36c-8,3.31-16.24,14.3-19.54,26.12-6.18,22.13-3.35,39.63-3,41.71l2.15.91.67.28a.39.39,0,0,1,.21.52.4.4,0,0,1-.35.25h-.08a.32.32,0,0,1-.09,0l-3-1.27a.42.42,0,0,1-.24-.29c0-.18-3.65-18.64,3-42.28,3.36-12.05,11.77-23.25,20-26.65a12.07,12.07,0,0,1,11,.41,6,6,0,0,1,3.29,4.17C479.19,332.06,473.74,338.34,468,345Z" style="fill:#407BFF"></path><path d="M469.5,328c-4.89,3.27-21.85,22.76-23.95,49.69-.09,1.24-.16,2.5-.19,3.78a.41.41,0,0,1-.38.39h0a.4.4,0,0,1-.39-.37v0c.71-29.18,19.3-50.65,24.5-54.12a.4.4,0,0,1,.55.11A.39.39,0,0,1,469.5,328Z" style="fill:#407BFF"></path></g></g><g id="freepik--Shadows--inject-18"><path id="freepik--Shadow--inject-18" d="M178.16,409.87,157.08,397.7a1.38,1.38,0,0,1,0-2.62l162.07-93.51a5,5,0,0,1,4.55,0l21.08,12.11c1.26.73,1.26,1.9,0,2.63L182.72,409.87A5,5,0,0,1,178.16,409.87Z" style="fill:#e0e0e0"></path><ellipse id="freepik--shadow--inject-18" cx="93.95" cy="425.97" rx="60.59" ry="34.98" style="fill:#e0e0e0"></ellipse><ellipse id="freepik--shadow--inject-18" cx="393.66" cy="415.33" rx="69.8" ry="40.3" style="fill:#e0e0e0"></ellipse></g><g id="freepik--speech-bubble-2--inject-18"><g id="freepik--speech-bubble--inject-18"><g id="freepik--speech-bubble--inject-18"><path d="M419,94.09l7.19-3.71a26,26,0,1,0-6.49-5.74l-2.81,7.58A1.51,1.51,0,0,0,419,94.09Zm3-41.71a23.82,23.82,0,0,1,14.57-7.84l2.74-.24a24,24,0,0,1,2.93,47.86l-2.74.1A24,24,0,0,1,422,52.38Z" style="fill:#455a64"></path><path d="M422,52.38a23.82,23.82,0,0,1,14.57-7.84l2.74-.24a24,24,0,0,1,2.93,47.86l-2.74.1A24,24,0,0,1,422,52.38Z" style="fill:#fff"></path></g><polygon points="434.73 73.53 434.73 84.03 445.23 84.03 445.23 73.53 455.74 73.53 455.74 63.02 445.23 63.02 445.23 52.52 434.73 52.52 434.73 63.02 424.22 63.02 424.22 73.53 434.73 73.53" style="fill:#407BFF"></polygon></g></g><g id="freepik--speech-bubble-1--inject-18"><g id="freepik--speech-bubble--inject-18"><path d="M125.86,55.72c-5.67-8.26-20.83-15.1-39.57-15.28-17.05-.16-37.8,4.85-43,21.23-4.42,14,9.19,27,23.33,29.72a98.34,98.34,0,0,0,17.06,1.8c2.62,4.89,8.77,7.9,13.4,8.22A13.62,13.62,0,0,1,94,92.8a89,89,0,0,0,13.1-2.21C131.66,84.45,132.2,65,125.86,55.72Z" style="fill:#407BFF"></path><path d="M125.86,55.72c-5.67-8.26-20.83-15.1-39.57-15.28-17.05-.16-37.8,4.85-43,21.23-4.42,14,9.19,27,23.33,29.72a98.34,98.34,0,0,0,17.06,1.8c2.62,4.89,8.77,7.9,13.4,8.22A13.62,13.62,0,0,1,94,92.8a89,89,0,0,0,13.1-2.21C131.66,84.45,132.2,65,125.86,55.72Z" style="fill:#fff;opacity:0.4"></path><path d="M62,61.58a5.09,5.09,0,1,0,5.09,5.09A5.09,5.09,0,0,0,62,61.58Zm23.83,0A5.09,5.09,0,1,0,91,66.67,5.09,5.09,0,0,0,85.86,61.58Zm23.84,0a5.09,5.09,0,1,0,5.09,5.09A5.09,5.09,0,0,0,109.7,61.58Z" style="fill:#fff"></path></g></g><g id="freepik--Clipboard--inject-18"><g id="freepik--clipboard--inject-18"><g id="freepik--Board--inject-18"><g id="freepik--Window--inject-18"><path d="M319.18,40.23,170.4,126a6.12,6.12,0,0,0-2.78,4.81V394.76a6.1,6.1,0,0,0,2.78,4.81l.57.32a6.17,6.17,0,0,0,5.57,0L325.32,314a6.13,6.13,0,0,0,2.79-4.82V45.35a6.14,6.14,0,0,0-2.79-4.81l-.57-.32A6.17,6.17,0,0,0,319.18,40.23Z" style="fill:#407BFF"></path><path d="M319.18,40.23,170.4,126a6.12,6.12,0,0,0-2.78,4.81V394.76a6.1,6.1,0,0,0,2.78,4.81l.57.32a6.17,6.17,0,0,0,5.57,0L325.32,314a6.13,6.13,0,0,0,2.79-4.82V45.35a6.14,6.14,0,0,0-2.79-4.81l-.57-.32A6.17,6.17,0,0,0,319.18,40.23Z" style="opacity:0.45"></path><path d="M328.11,309.35c0,2.45-1.72,4-3.85,5.23L177.6,399.25c-2.11,1.22-3.84.24-3.84-2.22V135.57h0a7.67,7.67,0,0,1,3.83-6.64l146.67-84.7a2.57,2.57,0,0,1,3.85,2.22h0Z" style="fill:#407BFF"></path><path d="M328.11,309.35c0,2.45-1.72,4-3.85,5.23L177.6,399.25c-2.11,1.22-3.84.24-3.84-2.22V135.57h0a7.67,7.67,0,0,1,3.83-6.64l146.67-84.7a2.57,2.57,0,0,1,3.85,2.22h0Z" style="opacity:0.30000000000000004"></path><path d="M328.11,45.35v1.1a2.57,2.57,0,0,0-3.86-2.22L177.58,128.94a7.47,7.47,0,0,0-2.79,2.79l0,.09-6.35-3.67a5.69,5.69,0,0,1,2-2.12l148.78-85.8a6.17,6.17,0,0,1,5.57,0l.56.33A6.11,6.11,0,0,1,328.11,45.35Z" style="fill:#407BFF"></path><path d="M328.11,45.35v1.1a2.57,2.57,0,0,0-3.86-2.22L177.58,128.94a7.47,7.47,0,0,0-2.79,2.79l0,.09-6.35-3.67a5.69,5.69,0,0,1,2-2.12l148.78-85.8a6.17,6.17,0,0,1,5.57,0l.56.33A6.11,6.11,0,0,1,328.11,45.35Z" style="opacity:0.2"></path></g></g><path id="freepik--shadow--inject-18" d="M324.48,298.09c0,2.52-1.77,4.12-4,5.38l-138.61,80c-2.19,1.26-4,.24-4-2.29V149.75h0a7.89,7.89,0,0,1,3.95-6.83L320.51,62.86a2.64,2.64,0,0,1,4,2.29V298.09Z" style="opacity:0.25"></path><g id="freepik--Form--inject-18"><g id="freepik--Paper--inject-18"><path d="M181.49,145.92,319.6,66.18a2.65,2.65,0,0,1,2.36,0l1.34.77a2.63,2.63,0,0,1,1.18,2V301.58a2.6,2.6,0,0,1-1.18,2L185.19,383.36a2.59,2.59,0,0,1-2.36,0l-1.34-.77a2.63,2.63,0,0,1-1.18-2V148A2.62,2.62,0,0,1,181.49,145.92Z" style="fill:#f5f5f5"></path><path d="M184.91,383.49a2,2,0,0,1-.44.11l-.23,0a2.82,2.82,0,0,1-.71,0,2,2,0,0,1-.44-.11l-.26-.13-1.33-.77a2.6,2.6,0,0,1-1.19-2V148a2.3,2.3,0,0,1,.35-1.16l3.69,2.13a2.45,2.45,0,0,0-.34,1.16V382.68C184,383.32,184.39,383.64,184.91,383.49Z" style="fill:#e0e0e0"></path><path d="M323.3,67,322,66.18a2.65,2.65,0,0,0-2.36,0L181.49,145.92a2.62,2.62,0,0,0-1.18,2.05v30.61l3.7,2.15L324.48,99.62V69A2.63,2.63,0,0,0,323.3,67Z" style="fill:#407BFF"></path><path d="M323.3,67,322,66.18a2.65,2.65,0,0,0-2.36,0L181.49,145.92a2.62,2.62,0,0,0-1.18,2.05v30.61l3.7,2.15L324.48,99.62V69A2.63,2.63,0,0,0,323.3,67Z" style="fill:#fff;opacity:0.4"></path><path d="M324.44,68.64c-.15-.48-.61-.63-1.14-.32L185.19,148.05a2.37,2.37,0,0,0-.84.88l-3.69-2.12a2.26,2.26,0,0,1,.84-.89L319.6,66.19a2.53,2.53,0,0,1,2.36,0l1.34.76A2.66,2.66,0,0,1,324.44,68.64Z" style="fill:#407BFF"></path><path d="M324.44,68.64c-.15-.48-.61-.63-1.14-.32L185.19,148.05a2.37,2.37,0,0,0-.84.88l-3.69-2.12a2.26,2.26,0,0,1,.84-.89L319.6,66.19a2.53,2.53,0,0,1,2.36,0l1.34.76A2.66,2.66,0,0,1,324.44,68.64Z" style="fill:#fff;opacity:0.6000000000000001"></path><path d="M180.31,148v30.62l3.7,2.14V150.1a2.52,2.52,0,0,1,.34-1.17l-3.69-2.12A2.3,2.3,0,0,0,180.31,148Z" style="fill:#407BFF"></path></g></g><g id="freepik--clip-board--inject-18"><path d="M246.18,196l66.39-38.4c.37-.22.67,0,.67.39v.87a1.5,1.5,0,0,1-.67,1.17l-66.39,38.41c-.37.21-.67,0-.67-.39v-.88A1.5,1.5,0,0,1,246.18,196Z" style="fill:#407BFF"></path><path d="M246.18,202.43,312.57,164c.37-.21.67,0,.67.39v.88a1.5,1.5,0,0,1-.67,1.17l-66.39,38.41c-.37.22-.67,0-.67-.38v-.88A1.5,1.5,0,0,1,246.18,202.43Z" style="fill:#407BFF"></path><path d="M247.06,157.88l-1.17.67a.77.77,0,0,0-.27.31.89.89,0,0,0-.11.43v12.37a.35.35,0,0,0,.11.3.21.21,0,0,0,.27,0l1.17-.67a.77.77,0,0,0,.27-.31.88.88,0,0,0,.12-.43V158.17a.35.35,0,0,0-.12-.3A.21.21,0,0,0,247.06,157.88Zm8.85-.52a1.31,1.31,0,0,0-.95-.43,3,3,0,0,0-1.47.49,4.27,4.27,0,0,0-1.19,1,8.07,8.07,0,0,0-.88,1.33v-.44a.35.35,0,0,0-.11-.3.21.21,0,0,0-.27,0l-1.09.63a.72.72,0,0,0-.28.31,1,1,0,0,0-.11.43v8.92a.38.38,0,0,0,.11.3.24.24,0,0,0,.28,0L251,169a.8.8,0,0,0,.27-.32.83.83,0,0,0,.11-.42v-4.87a4.92,4.92,0,0,1,.44-2.09,3,3,0,0,1,1.2-1.39c.56-.32,1-.32,1.24,0a2.46,2.46,0,0,1,.4,1.61v4.86a.38.38,0,0,0,.11.3.24.24,0,0,0,.28,0l1.09-.63a.76.76,0,0,0,.27-.31.9.9,0,0,0,.12-.43v-5.16a8,8,0,0,0-.15-1.62A2.41,2.41,0,0,0,255.91,157.36Zm6.17-.67-1,.3a4.57,4.57,0,0,1-.62.11.35.35,0,0,1-.3-.08.46.46,0,0,1-.08-.31,1.16,1.16,0,0,1,.33-.8,3,3,0,0,1,.76-.62,1.82,1.82,0,0,1,.65-.26.6.6,0,0,1,.34,0l.24.1c.07,0,.18,0,.32-.08l1.11-.64a.82.82,0,0,0,.28-.32.88.88,0,0,0,.11-.42,1.6,1.6,0,0,0-.25-.77,1.05,1.05,0,0,0-.6-.45,2,2,0,0,0-.94,0,4,4,0,0,0-1.26.52,5.25,5.25,0,0,0-1.25,1,7.23,7.23,0,0,0-.93,1.23,6.39,6.39,0,0,0-.58,1.32,4.51,4.51,0,0,0-.2,1.25,4.22,4.22,0,0,0,.1,1,1.38,1.38,0,0,0,.35.67,1.12,1.12,0,0,0,.67.29,2.82,2.82,0,0,0,1.05-.13l1.06-.31a4.48,4.48,0,0,1,.67-.15.5.5,0,0,1,.35,0,.34.34,0,0,1,.1.29.82.82,0,0,1-.13.43,2,2,0,0,1-.32.41,2.93,2.93,0,0,1-.42.37,3.51,3.51,0,0,1-.45.3,1.84,1.84,0,0,1-.73.29.69.69,0,0,1-.38-.09l-.25-.17c-.07,0-.18,0-.32.06l-1.11.64a.86.86,0,0,0-.28.31.77.77,0,0,0-.1.43,1.53,1.53,0,0,0,.23.8,1.18,1.18,0,0,0,.61.51,1.88,1.88,0,0,0,1,.05,4.07,4.07,0,0,0,1.34-.53,6.24,6.24,0,0,0,1.34-1,6.76,6.76,0,0,0,1.64-2.6,4.25,4.25,0,0,0,.21-1.25,2.09,2.09,0,0,0-.52-1.62C263.54,156.47,262.94,156.44,262.08,156.69Zm10.27-10-1.09.63a.77.77,0,0,0-.27.31.9.9,0,0,0-.12.43V153a5.15,5.15,0,0,1-.4,2.08,2.84,2.84,0,0,1-1.16,1.36q-.84.48-1.2,0a2.7,2.7,0,0,1-.37-1.63V149.9a.38.38,0,0,0-.11-.3.24.24,0,0,0-.28,0l-1.09.63a.88.88,0,0,0-.27.32.86.86,0,0,0-.11.43v5.15a8.18,8.18,0,0,0,.14,1.63,2.4,2.4,0,0,0,.49,1.14,1.21,1.21,0,0,0,.92.45,2.87,2.87,0,0,0,1.45-.47,4,4,0,0,0,1.18-1,8.9,8.9,0,0,0,.81-1.26V157a.32.32,0,0,0,.12.29.22.22,0,0,0,.27,0l1.09-.63a.78.78,0,0,0,.28-.31,1,1,0,0,0,.11-.43V147a.38.38,0,0,0-.11-.3A.26.26,0,0,0,272.35,146.72Zm6.8-3.93-.65.38a4.06,4.06,0,0,0-1.11.89,7.24,7.24,0,0,0-.8,1.17v-.44a.38.38,0,0,0-.11-.3.23.23,0,0,0-.28,0l-1.09.63a.77.77,0,0,0-.27.31.88.88,0,0,0-.12.43v8.92a.35.35,0,0,0,.12.3.22.22,0,0,0,.27,0l1.09-.63a.75.75,0,0,0,.28-.32,1,1,0,0,0,.11-.43v-5a4.06,4.06,0,0,1,.38-1.87,3.08,3.08,0,0,1,1.25-1.23l.93-.54a.7.7,0,0,0,.27-.31.88.88,0,0,0,.12-.43v-1.26a.35.35,0,0,0-.12-.3A.22.22,0,0,0,279.15,142.79Zm6.87-3.14a1.47,1.47,0,0,0-1-.17,3.7,3.7,0,0,0-1.32.5,5.85,5.85,0,0,0-1.29,1,7.19,7.19,0,0,0-.93,1.2,6.38,6.38,0,0,0-.59,1.21,5,5,0,0,0-.27,1c0,.14,0,.23.08.27a.27.27,0,0,0,.24,0l1.34-.77a1.07,1.07,0,0,0,.23-.2,1.78,1.78,0,0,0,.24-.34,3.35,3.35,0,0,1,.39-.59,1.89,1.89,0,0,1,.56-.46,1.3,1.3,0,0,1,1-.23c.26.07.39.36.39.89l-2.34,1.89a8,8,0,0,0-1.88,2.1,4.66,4.66,0,0,0-.71,2.47,2.94,2.94,0,0,0,.18,1.1,1.36,1.36,0,0,0,.51.65,1.21,1.21,0,0,0,.82.15,3,3,0,0,0,1.11-.42,5.07,5.07,0,0,0,1.44-1.22,6.25,6.25,0,0,0,.87-1.46v.64a.38.38,0,0,0,.11.3.26.26,0,0,0,.28,0l1.09-.63a.77.77,0,0,0,.27-.31.9.9,0,0,0,.12-.43v-5.63a4.76,4.76,0,0,0-.23-1.6A1.63,1.63,0,0,0,286,139.65Zm-1,5.45a3,3,0,0,1-.13.86,4.53,4.53,0,0,1-.39.92,4,4,0,0,1-.64.85,3.68,3.68,0,0,1-.87.69,1.34,1.34,0,0,1-.72.22c-.21,0-.31-.14-.31-.41a1.57,1.57,0,0,1,.26-.85,3.6,3.6,0,0,1,.85-.88l2-1.59Zm10.13-10.4a1.27,1.27,0,0,0-.95-.43,2.84,2.84,0,0,0-1.47.48,4.44,4.44,0,0,0-1.19,1,8.51,8.51,0,0,0-.88,1.33v-.44a.35.35,0,0,0-.11-.3.24.24,0,0,0-.27,0l-1.1.63a.77.77,0,0,0-.27.31.89.89,0,0,0-.11.43v8.93a.32.32,0,0,0,.11.29.22.22,0,0,0,.27,0l1.1-.63a.77.77,0,0,0,.27-.31.89.89,0,0,0,.11-.43v-4.87a5,5,0,0,1,.44-2.09,2.93,2.93,0,0,1,1.2-1.38c.56-.32,1-.33,1.24,0a2.48,2.48,0,0,1,.4,1.61v4.87a.38.38,0,0,0,.11.3.26.26,0,0,0,.28,0l1.09-.63a.7.7,0,0,0,.27-.31.9.9,0,0,0,.12-.43v-5.15a8.08,8.08,0,0,0-.15-1.63A2.37,2.37,0,0,0,295.17,134.7Zm4.28-.33a4,4,0,0,1,.39-.91,3.33,3.33,0,0,1,.53-.68,2.54,2.54,0,0,1,.59-.47,2.29,2.29,0,0,1,.6-.27.84.84,0,0,1,.41,0,.62.62,0,0,1,.3.16,1.64,1.64,0,0,1,.24.27,1.07,1.07,0,0,0,.2.23.2.2,0,0,0,.27,0l1.09-.63a.72.72,0,0,0,.28-.31.79.79,0,0,0,.11-.43,2.28,2.28,0,0,0-.22-.85,1.65,1.65,0,0,0-.62-.74,1.74,1.74,0,0,0-1.08-.26A3.45,3.45,0,0,0,301,130a5.73,5.73,0,0,0-1.43,1.18,8,8,0,0,0-1.1,1.6,9.74,9.74,0,0,0-.74,1.83,8.4,8.4,0,0,0-.31,1.86q0,.39,0,.81t0,.75a4.74,4.74,0,0,0,.32,1.49,2.23,2.23,0,0,0,.73,1,1.8,1.8,0,0,0,1.1.32,3,3,0,0,0,1.43-.46,6.62,6.62,0,0,0,1.58-1.28,8.18,8.18,0,0,0,1.08-1.52,7.08,7.08,0,0,0,.62-1.46,4.57,4.57,0,0,0,.22-1.1.3.3,0,0,0-.11-.3.24.24,0,0,0-.28,0l-1.09.63a.71.71,0,0,0-.27.33,3.57,3.57,0,0,0-.2.46c-.08.2-.16.38-.24.55a2.8,2.8,0,0,1-.3.49,2.51,2.51,0,0,1-.41.46,3.71,3.71,0,0,1-.6.43,1.68,1.68,0,0,1-.59.21.86.86,0,0,1-.53-.08.88.88,0,0,1-.39-.45,2.31,2.31,0,0,1-.2-.9,6,6,0,0,1,0-.65q0-.39,0-.69A4.37,4.37,0,0,1,299.45,134.37Zm13-8a2.4,2.4,0,0,0-.71-1.14,1.7,1.7,0,0,0-1.11-.41,2.84,2.84,0,0,0-1.46.45,5.64,5.64,0,0,0-1.46,1.24,8.4,8.4,0,0,0-1.11,1.75,9.35,9.35,0,0,0-.7,2.05,9.49,9.49,0,0,0-.25,2.16,6.58,6.58,0,0,0,.25,2,2.61,2.61,0,0,0,.7,1.23,1.6,1.6,0,0,0,1.11.42,3,3,0,0,0,1.46-.47,6.49,6.49,0,0,0,1.42-1.1,9.36,9.36,0,0,0,1-1.28,6.63,6.63,0,0,0,.63-1.19,2.87,2.87,0,0,0,.22-.82.3.3,0,0,0-.11-.3.26.26,0,0,0-.28,0l-1.15.66a1.23,1.23,0,0,0-.27.22c-.07.08-.15.2-.26.36a3.12,3.12,0,0,1-.47.59,3.31,3.31,0,0,1-.75.55,1.8,1.8,0,0,1-.62.25.93.93,0,0,1-.53,0,.74.74,0,0,1-.36-.36,1.48,1.48,0,0,1-.14-.69l4.8-2.77a.84.84,0,0,0,.27-.31.9.9,0,0,0,.12-.43v-.87A5.32,5.32,0,0,0,312.45,126.37Zm-4.93,3.91a4.12,4.12,0,0,1,.14-.68,3.4,3.4,0,0,1,.31-.75,3.34,3.34,0,0,1,.49-.71,2.87,2.87,0,0,1,.71-.57,1.62,1.62,0,0,1,.76-.27.66.66,0,0,1,.47.14.89.89,0,0,1,.26.43,3.45,3.45,0,0,1,.11.54Z" style="fill:#455a64"></path><path d="M249.66,174.49c1.13-.66,2-.81,2.64-.46s.94,1.21.94,2.59a7.24,7.24,0,0,1-.94,3.69,7,7,0,0,1-2.64,2.61l-2.25,1.3v4.18a.84.84,0,0,1-.12.42.68.68,0,0,1-.26.31l-1.14.65a.24.24,0,0,1-.27,0,.37.37,0,0,1-.11-.29V177.39a.94.94,0,0,1,.11-.42.77.77,0,0,1,.27-.31Zm-2.25,7.39,2.18-1.26a3.88,3.88,0,0,0,1.28-1.16,3.11,3.11,0,0,0,.47-1.75c0-.7-.16-1.09-.47-1.17a1.75,1.75,0,0,0-1.28.33l-2.18,1.26Z" style="fill:#455a64"></path><path d="M257.77,173a3.28,3.28,0,0,1,1.4-.49,1.71,1.71,0,0,1,1.08.26,2,2,0,0,1,.73.89,3.92,3.92,0,0,1,.32,1.43c0,.11,0,.25,0,.42v1c0,.17,0,.31,0,.43a8.13,8.13,0,0,1-.33,1.8,8.68,8.68,0,0,1-.72,1.72,8.54,8.54,0,0,1-1.08,1.5,6.21,6.21,0,0,1-1.4,1.12,3.32,3.32,0,0,1-1.4.49,1.68,1.68,0,0,1-1.08-.25,1.9,1.9,0,0,1-.73-.88,4.18,4.18,0,0,1-.32-1.42c0-.11,0-.25,0-.41s0-.34,0-.52,0-.35,0-.52,0-.33,0-.45a7.56,7.56,0,0,1,.31-1.79,8.92,8.92,0,0,1,.74-1.74,7.34,7.34,0,0,1,1.08-1.5A5.79,5.79,0,0,1,257.77,173Zm1.7,3.24a2.1,2.1,0,0,0-.21-.85.77.77,0,0,0-.4-.38.84.84,0,0,0-.52,0,2.54,2.54,0,0,0-.57.25,3.15,3.15,0,0,0-.58.42,2.88,2.88,0,0,0-.52.61,3.64,3.64,0,0,0-.4.84,3.91,3.91,0,0,0-.2,1.08c0,.11,0,.24,0,.39s0,.31,0,.47,0,.32,0,.47a2.93,2.93,0,0,0,0,.36,1.91,1.91,0,0,0,.2.84.73.73,0,0,0,.4.38.84.84,0,0,0,.52,0,2.21,2.21,0,0,0,.58-.25,3.55,3.55,0,0,0,.57-.41,3.15,3.15,0,0,0,.52-.61,3.62,3.62,0,0,0,.4-.84,4.3,4.3,0,0,0,.21-1.09c0-.09,0-.21,0-.37v-.95C259.48,176.44,259.48,176.32,259.47,176.23Z" style="fill:#455a64"></path><path d="M264.74,178.39a.94.94,0,0,1-.11.42.77.77,0,0,1-.27.31l-1.07.62a.22.22,0,0,1-.27,0,.35.35,0,0,1-.11-.29v-12.3a1,1,0,0,1,.11-.42.8.8,0,0,1,.27-.3l1.07-.62a.22.22,0,0,1,.27,0,.35.35,0,0,1,.11.29Z" style="fill:#455a64"></path><path d="M268.2,163.6a.23.23,0,0,1,.26,0,.34.34,0,0,1,.12.29v1.47a.9.9,0,0,1-.12.42.71.71,0,0,1-.26.3l-1.21.7a.22.22,0,0,1-.27,0,.34.34,0,0,1-.11-.29V165a.94.94,0,0,1,.11-.42.67.67,0,0,1,.27-.3Zm.31,12.62a.84.84,0,0,1-.12.42.65.65,0,0,1-.26.3l-1.07.62a.22.22,0,0,1-.27,0,.34.34,0,0,1-.11-.29v-8.73a.94.94,0,0,1,.11-.42.84.84,0,0,1,.27-.31l1.07-.61a.23.23,0,0,1,.26,0,.34.34,0,0,1,.12.29Z" style="fill:#455a64"></path><path d="M271.92,169.22c0,.2,0,.43,0,.68a5.85,5.85,0,0,0,0,.64,2.43,2.43,0,0,0,.2.88.9.9,0,0,0,.39.44.86.86,0,0,0,.51.08,1.65,1.65,0,0,0,.57-.21,3.76,3.76,0,0,0,.59-.42,2.46,2.46,0,0,0,.41-.45,3.5,3.5,0,0,0,.29-.49,5.27,5.27,0,0,0,.23-.53,4.43,4.43,0,0,1,.2-.45.66.66,0,0,1,.27-.33l1.06-.61a.26.26,0,0,1,.28,0,.29.29,0,0,1,.1.29,4.76,4.76,0,0,1-.21,1.08,6.81,6.81,0,0,1-.61,1.43,8.35,8.35,0,0,1-1.06,1.49,6.13,6.13,0,0,1-1.55,1.24,3,3,0,0,1-1.39.46,1.75,1.75,0,0,1-1.07-.31,2.11,2.11,0,0,1-.72-1,4.76,4.76,0,0,1-.32-1.46c0-.21,0-.45,0-.73s0-.54,0-.78a8.06,8.06,0,0,1,.31-1.83,9.05,9.05,0,0,1,.72-1.79A7.74,7.74,0,0,1,272.2,165a5.65,5.65,0,0,1,1.39-1.16,3.47,3.47,0,0,1,1.55-.53,1.76,1.76,0,0,1,1.06.26,1.58,1.58,0,0,1,.61.72,2.35,2.35,0,0,1,.21.84.86.86,0,0,1-.38.72l-1.06.62a.21.21,0,0,1-.27,0,1.37,1.37,0,0,1-.2-.22,1.25,1.25,0,0,0-.23-.27.73.73,0,0,0-.29-.15.84.84,0,0,0-.41,0,2.73,2.73,0,0,0-.59.26,3.29,3.29,0,0,0-.57.46,3.2,3.2,0,0,0-.51.67,3.63,3.63,0,0,0-.39.89A4.58,4.58,0,0,0,271.92,169.22Z" style="fill:#455a64"></path><path d="M280.54,169.25l-2.78-7a.51.51,0,0,1,0-.13,1,1,0,0,1,.11-.42.8.8,0,0,1,.27-.3l1.05-.61a.28.28,0,0,1,.3,0,.41.41,0,0,1,.17.2l1.87,4.71,1.87-6.87a1.4,1.4,0,0,1,.17-.39.76.76,0,0,1,.29-.32l1.06-.61a.23.23,0,0,1,.26,0,.34.34,0,0,1,.12.29.59.59,0,0,1,0,.14l-3.95,14.5a1.45,1.45,0,0,1-.17.4.76.76,0,0,1-.29.32l-1.06.61a.21.21,0,0,1-.26,0,.32.32,0,0,1-.12-.29.68.68,0,0,1,0-.14Z" style="fill:#455a64"></path><path d="M193.18,192.09V234.2c0,2.24,1.57,3.15,3.51,2l32.56-18.8a7.76,7.76,0,0,0,3.52-6.09V169.23c0-2.24-1.57-3.15-3.52-2L196.69,186A7.77,7.77,0,0,0,193.18,192.09Z" style="fill:#407BFF"></path><g style="opacity:0.4"><path d="M193.18,192.09V234.2c0,2.24,1.57,3.15,3.51,2l32.56-18.8a7.76,7.76,0,0,0,3.52-6.09V169.23c0-2.24-1.57-3.15-3.52-2L196.69,186A7.77,7.77,0,0,0,193.18,192.09Z" style="fill:#fff"></path></g><path d="M213,182.22c3.68-2.13,6.66.13,6.66,5s-3,10.59-6.66,12.71-6.65-.13-6.65-5S209.3,184.34,213,182.22Z" style="fill:#fafafa"></path><path d="M224.53,202c-.6-3.6-3.75-4-7-2.08l-9,5.21a15,15,0,0,0-7,10.21l-1.73,13.51,26.56-15.33Z" style="fill:#fafafa"></path><path d="M295.08,235.34a.52.52,0,0,1-.27-.07.55.55,0,0,1-.27-.47V216.92a.55.55,0,0,1,.27-.47l15.38-8.87a.52.52,0,0,1,.54,0,.54.54,0,0,1,.27.47v17.88a.52.52,0,0,1-.27.46l-15.37,8.88A.52.52,0,0,1,295.08,235.34Zm.54-18.11v16.64l14.29-8.26V209Z" style="fill:#455a64"></path><path d="M193.18,274.6v1.23c0,.67.47.94,1,.61l52.07-30.07a2.3,2.3,0,0,0,1-1.81v-1.24c0-.67-.47-.94-1-.61l-52.07,30.07A2.32,2.32,0,0,0,193.18,274.6Z" style="fill:#e0e0e0"></path><path d="M193.18,282.38v1.24c0,.67.47.94,1,.6l92.08-53.17a2.32,2.32,0,0,0,1.05-1.82V228c0-.67-.47-.94-1.05-.61l-92.08,53.17A2.33,2.33,0,0,0,193.18,282.38Z" style="fill:#e0e0e0"></path><path d="M193.18,289.79V291c0,.67.47.94,1,.6l92.08-53.17a2.3,2.3,0,0,0,1.05-1.81v-1.24c0-.67-.47-.94-1.05-.61L194.23,288A2.33,2.33,0,0,0,193.18,289.79Z" style="fill:#e0e0e0"></path><polygon points="302.58 226.98 299 223.54 300.2 221.01 302.23 222.97 311.05 204.31 312.59 205.79 302.58 226.98" style="fill:#407BFF"></polygon><path d="M295.08,260.25a.53.53,0,0,1-.27-.08.52.52,0,0,1-.27-.46V241.83a.52.52,0,0,1,.27-.47l15.38-8.88a.52.52,0,0,1,.54,0,.57.57,0,0,1,.27.47v17.88a.55.55,0,0,1-.27.47l-15.37,8.87A.53.53,0,0,1,295.08,260.25Zm.54-18.11v16.63l14.29-8.25V233.88Z" style="fill:#455a64"></path><path d="M193.18,299.5v1.23c0,.67.47.94,1,.61l52.07-30.06a2.33,2.33,0,0,0,1-1.82v-1.24c0-.67-.47-.94-1-.61l-52.07,30.07A2.33,2.33,0,0,0,193.18,299.5Z" style="fill:#e0e0e0"></path><path d="M193.18,307.29v1.23c0,.67.47.94,1,.61L286.31,256a2.33,2.33,0,0,0,1.05-1.82V252.9c0-.67-.47-.94-1.05-.61l-92.08,53.18A2.32,2.32,0,0,0,193.18,307.29Z" style="fill:#e0e0e0"></path><path d="M193.18,314.7v1.23c0,.67.47.94,1,.61l92.08-53.17a2.33,2.33,0,0,0,1.05-1.82v-1.24c0-.67-.47-.94-1.05-.61l-92.08,53.18A2.32,2.32,0,0,0,193.18,314.7Z" style="fill:#e0e0e0"></path><polygon points="302.58 251.89 299 248.44 300.2 245.91 302.23 247.87 311.05 229.22 312.59 230.7 302.58 251.89" style="fill:#407BFF"></polygon><path d="M193.18,248.38v1.23c0,.67.47.94,1,.61l118-68.16a2.33,2.33,0,0,0,1.05-1.82V179c0-.67-.47-.94-1.05-.61l-118,68.17A2.32,2.32,0,0,0,193.18,248.38Z" style="fill:#e0e0e0"></path><path d="M193.18,256.24v1.24c0,.67.47.94,1,.6l118-68.16a2.32,2.32,0,0,0,1.05-1.82v-1.24c0-.67-.47-.94-1.05-.6l-118,68.16A2.33,2.33,0,0,0,193.18,256.24Z" style="fill:#e0e0e0"></path><path d="M193.18,264.11v1.23c0,.67.47.94,1,.61l118-68.17a2.3,2.3,0,0,0,1.05-1.81v-1.24c0-.67-.47-.94-1.05-.61l-118,68.17A2.32,2.32,0,0,0,193.18,264.11Z" style="fill:#e0e0e0"></path><path d="M194.44,158.58l48.35-27.94c.7-.4,1.26-.08,1.26.73v.37a2.77,2.77,0,0,1-1.26,2.18l-48.35,27.94c-.7.41-1.26.08-1.26-.72v-.38A2.77,2.77,0,0,1,194.44,158.58Z" style="fill:#fafafa"></path><path d="M194.44,165.19l28.77-16.61c.7-.4,1.26-.07,1.26.73v.37a2.79,2.79,0,0,1-1.26,2.19l-28.77,16.61c-.7.4-1.26.07-1.26-.73v-.37A2.79,2.79,0,0,1,194.44,165.19Z" style="fill:#fafafa"></path><path d="M291.18,102.31l21.51-12.43c.35-.2.63,0,.63.36v.82a1.39,1.39,0,0,1-.63,1.09l-21.51,12.43c-.35.2-.63,0-.63-.37v-.81A1.37,1.37,0,0,1,291.18,102.31Z" style="fill:#407BFF"></path><path d="M291.18,112.21l21.51-12.42c.35-.2.63,0,.63.36V101a1.39,1.39,0,0,1-.63,1.09l-21.51,12.43c-.35.2-.63,0-.63-.37v-.82A1.4,1.4,0,0,1,291.18,112.21Z" style="fill:#407BFF"></path><path d="M295.62,104.67l17.07-9.85c.35-.2.63,0,.63.36V96a1.39,1.39,0,0,1-.63,1.09l-17.07,9.85c-.35.2-.63,0-.63-.36v-.82A1.39,1.39,0,0,1,295.62,104.67Z" style="fill:#407BFF"></path></g><g id="freepik--Clip--inject-18"><g id="freepik--shadow--inject-18" style="opacity:0.25"><path d="M292.53,76.17V88a10.18,10.18,0,0,1-4.65,8.06l-23,13.26a7.42,7.42,0,0,0-2.46,3.35,13.44,13.44,0,0,1-1.78,2.9c-1.78,2-5.68,4.14-8.42,5a16.64,16.64,0,0,1-2.76.64c-.35.06-.73.1-1.13.15-2.5.34-5.63.76-7.46,1.82L214,138.76a4.69,4.69,0,0,1-2.34.7,3.12,3.12,0,0,1-1.57-.41,3.83,3.83,0,0,1-1.71-3.53V123.64a10.18,10.18,0,0,1,4.66-8.06l9-5.21.13-.05a.95.95,0,0,1,.94,1.63.28.28,0,0,1-.1.09l-9,5.21a8.34,8.34,0,0,0-3.69,6.39v11.88a1.62,1.62,0,0,0,2.73,1.57l26.9-15.53c2.16-1.25,5.49-1.7,8.16-2.06.4,0,.77-.1,1.12-.15a15.41,15.41,0,0,0,2.45-.57c2.44-.77,6.06-2.75,7.56-4.44a11.8,11.8,0,0,0,1.49-2.49c.78-1.58,1.59-3.21,3.23-4.15l23-13.27A8.32,8.32,0,0,0,290.6,88V76.17a2.07,2.07,0,0,0-.74-1.86,2,2,0,0,0-2,.29l-7.83,4.52a7.92,7.92,0,0,0-1-1.66l7.85-4.53a3.48,3.48,0,0,1,5.62,3.24Z"></path></g><g id="freepik--clip--inject-18"><path d="M275.77,76.39h0a2.36,2.36,0,0,1,2.42.23,7.55,7.55,0,0,1,3.42,5.92,2.39,2.39,0,0,1-1,2.21h0l-54.53,31.49-4.83-8.37Z" style="fill:#37474f"></path><path d="M223.67,112.07l57-32.88a7,7,0,0,0-2.43-2.57,2.41,2.41,0,0,0-.33-.15L221.8,108.84Z" style="fill:#455a64"></path><path d="M223.67,108.1c-1.89-1.08-3.42-.2-3.42,2a7.53,7.53,0,0,0,3.42,5.91c1.89,1.09,3.42.21,3.42-2A7.55,7.55,0,0,0,223.67,108.1Z" style="fill:#263238"></path><path d="M293.5,77V88.88a10.15,10.15,0,0,1-4.66,8.06l-23,13.27c-1.14.65-1.78,2-2.47,3.34a12.58,12.58,0,0,1-1.77,2.9c-1.78,2-5.68,4.14-8.43,5a15.54,15.54,0,0,1-2.75.63c-.35.06-.73.11-1.13.16-2.51.34-5.63.76-7.46,1.82L215,139.6a4.71,4.71,0,0,1-2.34.7,3.11,3.11,0,0,1-1.57-.4,3.86,3.86,0,0,1-1.71-3.54V124.49a10.15,10.15,0,0,1,4.66-8.06l9-5.22.13,0a.95.95,0,0,1,.94,1.63l-.1.08-9,5.22a8.31,8.31,0,0,0-3.69,6.39v11.87a1.62,1.62,0,0,0,2.73,1.57l26.89-15.53c2.16-1.24,5.5-1.69,8.17-2.05l1.12-.16a14.34,14.34,0,0,0,2.45-.56c2.44-.78,6.06-2.75,7.55-4.45a11.18,11.18,0,0,0,1.5-2.49c.78-1.58,1.59-3.21,3.23-4.15l23-13.26a8.32,8.32,0,0,0,3.69-6.4V77a1.62,1.62,0,0,0-2.73-1.57L281,80a7.92,7.92,0,0,0-1-1.66l7.85-4.53A3.48,3.48,0,0,1,293.5,77Z" style="fill:#455a64"></path></g></g><g id="freepik--Signatures--inject-18"><path d="M313.06,287.68,284.83,304c-.15.09-.26,0-.26-.25a.68.68,0,0,1,.26-.55l28.23-16.3c.14-.08.26,0,.26.25A.69.69,0,0,1,313.06,287.68Z" style="fill:#e0e0e0"></path><path d="M225.11,338.47l-31.67,18.28c-.15.08-.26,0-.26-.25a.66.66,0,0,1,.26-.55l31.67-18.29c.14-.08.26,0,.26.25A.71.71,0,0,1,225.11,338.47Z" style="fill:#e0e0e0"></path><path d="M195.59,347c.71.9,1.84,1.73,3.64-.88a23,23,0,0,0,2.3-4.9,8.16,8.16,0,0,0,.67-3.45c-.17-1-.92.22-1.54,1.62a38.47,38.47,0,0,0-1.84,5.12c-.81,2.91-.54,5,.83,4.37a6.31,6.31,0,0,0,2.17-2.91,7,7,0,0,0,.91-3.82c0-.14-.16-.1-.28.16a16.7,16.7,0,0,0-1.48,4,3.64,3.64,0,0,0,.07,2.26c.27.3,1-.89,1.38-1.72a27.86,27.86,0,0,0,1.58-4.32c.12-.39,0-.65-.22-.1a9.72,9.72,0,0,0-.53,2.32c-.05.61-.14,1.42.3,1.11.94-.69,1.6-3.2,1.92-4.53l-.31.4a8.68,8.68,0,0,0,0,2.94c0,.08.09,0,.16-.13a19.17,19.17,0,0,0,1.26-3.31l-.25.26c-.3,1.56-.35,3.11.32,3.16s1.79-2.29,2.53-3.94a68.59,68.59,0,0,0,4.48-13.93c.07-.3-.08-.27-.22.05-1.17,2.64-2.14,5.4-3,8-1,2.87-1.87,5.73-2.67,8.53a50.19,50.19,0,0,0-1.39,5.64c-.06.38-.12.82,0,.91.33.23,1-1,1.39-1.9.79-1.89,1.36-4,2-5.82.86-2.65,1.7-5.3,2.54-7.94l-.23,0a53,53,0,0,0-1.61,8.23c0,.3.17,0,.27-.24q1-2.53,2-5.07l-.24.14c-.09,1.14-.17,2.27-.26,3.4,0,.14,0,.19.16,0a18.83,18.83,0,0,0,1.83-3.86l-.29.34a6.94,6.94,0,0,1,.08,2c0,.26.14.09.25-.17s.34-.77.5-1.15l-.15-.24a2.49,2.49,0,0,0-.08,2.29c.32.56.91.65,1.74-.2a23.56,23.56,0,0,0,2.82-4.6,34.27,34.27,0,0,0,2.45-5.81c.42-1.5.23-2.49-.44-2.21s-1.34,1.43-1.91,2.77a30,30,0,0,0-1.69,5.21c-.36,1.58-.81,3.72-.51,4.52s1.24-.05,2.09-1.63a25.73,25.73,0,0,0,2.41-6.52c.06-.29-.09-.46-.27,0-.86,2.19-.89,4-.39,4.61.3.39,1.44.62,2.14-1.43.17-.51,0-.8-.25-.15-.46,1.35-1.44.84-1.59.65-.35-.46-.42-1.69.24-3.3l-.23-.15a23.57,23.57,0,0,1-1.53,4.54c-.56,1.23-1.32,2.66-1.9,2.79s-.39-1.5-.19-2.72a25.78,25.78,0,0,1,1.11-4.25,14.22,14.22,0,0,1,1.51-3.32c.66-.89,1.34-1,1.19.13a19.92,19.92,0,0,1-1.68,4.48c-.68,1.45-1.46,2.91-2.23,4.2s-1.57,2.09-2.1,2a1.13,1.13,0,0,1-.56-1.62c.19-.44.1-.8-.15-.24-.17.38-.33.77-.5,1.15l.25-.17a7.14,7.14,0,0,0-.08-2.12c0-.17-.19.08-.28.34a16.39,16.39,0,0,1-1.57,3.29l.15,0c.09-1.13.17-2.25.25-3.38,0-.2-.12-.15-.23.14-.68,1.76-1.35,3.52-2,5.27l.27-.23a51,51,0,0,1,1.53-7.84c.11-.38-.08-.43-.23,0-1.25,3.95-2.51,7.91-3.83,11.89-.19.58-.39,1.18-.63,1.76s-.76,1.53-1,1.29,0-.66.09-.95c.32-1.7.87-3.63,1.41-5.47.73-2.53,1.53-5.1,2.4-7.68s1.86-5.37,3-8l-.23.05a66.11,66.11,0,0,1-3.56,11.65c-.35.85-.72,1.7-1.11,2.53a11.33,11.33,0,0,1-1.23,2.31c-.56.66-.9.24-1-.3a6.9,6.9,0,0,1,.14-2.18c.07-.34-.17,0-.24.27a16,16,0,0,1-1.07,2.82l.16-.13a7.64,7.64,0,0,1,0-2.78c.06-.36-.17-.18-.27.22a14.39,14.39,0,0,1-.86,2.63c-.4.83-.73,1-.75.4a6.1,6.1,0,0,1,.38-1.94l-.23-.09a31.64,31.64,0,0,1-1,3c-.35.81-1.11,2.35-1.36,1.93a3.5,3.5,0,0,1,.1-1.89,14.93,14.93,0,0,1,1.13-2.77l-.27.16c.14,1-.8,3.11-1.63,4.16s-1.41.92-1.68.38-.15-1.86.31-3.42a29.44,29.44,0,0,1,1.88-5c.35-.66.57-.91.59-.37a4.06,4.06,0,0,1-.1.78,24.62,24.62,0,0,1-2.78,6.42c-1.52,1.94-2.44,1.28-3.11.58-.05-.05-.23.37-.19.42Z" style="fill:#455a64"></path><path d="M288.13,291.27a14.78,14.78,0,0,1,1.82-4.16,9.48,9.48,0,0,1,1.34-1.63c.8-.75.23,1-.06,2a107.11,107.11,0,0,1-3.61,10.34l.18.23a32.42,32.42,0,0,1,1.8-4.13,8.84,8.84,0,0,1,1.16-1.72c.49-.47.11,1.1-.05,1.76-.06.29,0,.61.24.1a15.91,15.91,0,0,1,1.38-2.67l.27-.39c.26-.38.32-.33.19.17a7.3,7.3,0,0,1-.34,1.36l.26.08c.15-.47.71-2,1-1.91s0,.65-.12,1.06a4.94,4.94,0,0,0-.22,1.61c.09.48.71-.59,1.05-1.11.78-1.21,1.52-2.57,2.24-4A34.45,34.45,0,0,0,299,283a2.91,2.91,0,0,0,.18-1.33c-.09-.4-.36-.19-.72.19a17.34,17.34,0,0,0-2.26,4.07,35.38,35.38,0,0,0-1.86,5.27c-.36,1.33-.66,2.75-.27,3.15s1.76-2,2.47-3.27a55.65,55.65,0,0,0,3-6.58c.11-.3.14-.9-.11-.47a17.74,17.74,0,0,0-2.48,6.49c0,.15,0,.36.14.19a17.3,17.3,0,0,0,2.59-4.69l-.27-.06-.66,3.48c0,.22,0,.35.18.14a10,10,0,0,0,1.4-3.06l-.35.26a16.42,16.42,0,0,0-.24,2.35c0,.5.38.27.74,0a16.27,16.27,0,0,0,2.72-2.84,75.4,75.4,0,0,0,7-10.36,17.2,17.2,0,0,0,2-4.91c.27-1.44-.28-1.62-1-1.16a19,19,0,0,0-3.12,3,33.19,33.19,0,0,0-2.83,3.78c-1.65,2.52-4.08,6.87-4.54,9.91-.49,3.26,1.33,2.9,3,1.52a30.35,30.35,0,0,0,5.91-7.67c.46-.81.91-1.66,1.34-2.54a20.75,20.75,0,0,0,1-2.31c.45-1.41.11-2-.51-1.63a14.17,14.17,0,0,0-3.12,4.23,21.28,21.28,0,0,0-2,5.08c-.91,4.11,1.08,4.46,2.61,4.11.13,0,.32-.69.22-.7-1.1-.15-2.85.07-2.59-2.72.23-2.56,2.2-6.15,3.68-8a4.11,4.11,0,0,1,1.13-1.13c.54-.19.21.7-.19,1.58a42.47,42.47,0,0,1-2.11,4,30.17,30.17,0,0,1-4.84,6.28c-1.39,1.33-3.33,2.39-3.17-.09.14-2.28,2.23-6.09,3.55-8.24a32.45,32.45,0,0,1,4.53-5.92c.75-.76,1.81-1.93,2.36-1.87.83.08-.6,3.08-1.33,4.41a80.68,80.68,0,0,1-5.51,8.61,36.66,36.66,0,0,1-2.9,3.56,6.25,6.25,0,0,1-1.39,1.21c-.28.11-.33-.11-.27-.64s.11-.93.17-1.39c0-.29-.17-.36-.31.14a7.54,7.54,0,0,1-1.1,2.36c.06.08.11.17.16.25.22-1.12.44-2.25.65-3.37.05-.28-.06-.61-.26-.06a15.61,15.61,0,0,1-2.3,4.17l.15.2a14.63,14.63,0,0,1,2.1-5.4c0-.16-.07-.32-.11-.47-.63,1.63-1.33,3.23-2.11,4.77-.39.79-.8,1.55-1.22,2.28a18.93,18.93,0,0,1-1.18,1.93c-.53.67-.64,0-.53-.71a18.7,18.7,0,0,1,.62-2.38,34,34,0,0,1,1.72-4.5c.3-.63.61-1.24.94-1.83a6.66,6.66,0,0,1,.61-1c.31-.37.55-.24.47.25a15.75,15.75,0,0,1-1.07,2.55c-.36.75-.74,1.48-1.11,2.21-.61,1.2-1.24,2.4-1.91,3.44-.19.31-.38.6-.58.89a3.2,3.2,0,0,1-.3.43c-.11.06,0-.33.06-.62.17-.81.54-2.05.22-2.23s-1.29,2-1.56,2.84c-.16.48.05.69.26.08.27-.81.85-3,.33-2.76a5.88,5.88,0,0,0-1.12,1.56,19.35,19.35,0,0,0-1.13,2.33l.23.1a9.46,9.46,0,0,0,.37-2.55c-.09-.53-.74.35-1.12.92a28.12,28.12,0,0,0-2.7,5.71c-.14.38,0,.75.19.23.95-2.36,1.82-4.72,2.58-7.07.4-1.21.76-2.4,1.1-3.59a13.81,13.81,0,0,0,.64-2.58c0-1.21-1.3.5-1.93,1.43a16,16,0,0,0-2.2,5.09c-.06.27.12,0,.18-.19Z" style="fill:#455a64"></path></g><path d="M255,287.67h0c.67.88,2,.43,2.92-1h0c1.19-1.8,2.85-1.95,3.23-.3h0c.3,1.31,1.45,1.53,2.57.49h0c1.4-1.3,2.75-.57,2.63,1.43h0c-.1,1.59.75,2.45,1.9,1.92h0c1.45-.66,2.33.87,1.72,3h0c-.48,1.68,0,3.07,1,3.13h0c1.32.06,1.62,2.2.6,4.16h0c-.81,1.57-.81,3.33,0,3.95h0c1,.79.72,3.28-.6,4.86h0a4.74,4.74,0,0,0-1,4.3h0c.61,1.4-.27,3.95-1.72,5h0a5.1,5.1,0,0,0-1.9,4.12h0c.12,1.86-1.23,4.15-2.63,4.47h0c-1.12.25-2.27,1.79-2.57,3.45h0c-.38,2.09-2,3.85-3.23,3.43h0c-.95-.33-2.25.73-2.92,2.37h0c-.83,2.07-2.59,3.09-3.43,2h0c-.67-.87-2-.43-2.92,1h0c-1.19,1.79-2.85,1.94-3.23.29h0c-.3-1.31-1.45-1.53-2.56-.49h0c-1.41,1.31-2.76.58-2.64-1.42h0c.1-1.59-.75-2.46-1.9-1.93h0c-1.45.66-2.33-.87-1.72-3h0c.49-1.67,0-3.07-1-3.12h0c-1.32-.07-1.62-2.21-.6-4.17h0c.81-1.56.81-3.33,0-3.95h0c-1-.79-.72-3.27.6-4.86h0a4.69,4.69,0,0,0,1-4.29h0c-.61-1.41.27-4,1.72-5h0a5.13,5.13,0,0,0,1.9-4.13h0c-.12-1.86,1.23-4.15,2.64-4.46h0c1.11-.26,2.26-1.8,2.56-3.46h0c.38-2.09,2-3.85,3.23-3.43h0c.95.33,2.25-.73,2.92-2.37h0C252.37,287.59,254.13,286.58,255,287.67Z" style="fill:#407BFF"></path><path d="M255,287.67h0c.67.88,2,.43,2.92-1h0c1.19-1.8,2.85-1.95,3.23-.3h0c.3,1.31,1.45,1.53,2.57.49h0c1.4-1.3,2.75-.57,2.63,1.43h0c-.1,1.59.75,2.45,1.9,1.92h0c1.45-.66,2.33.87,1.72,3h0c-.48,1.68,0,3.07,1,3.13h0c1.32.06,1.62,2.2.6,4.16h0c-.81,1.57-.81,3.33,0,3.95h0c1,.79.72,3.28-.6,4.86h0a4.74,4.74,0,0,0-1,4.3h0c.61,1.4-.27,3.95-1.72,5h0a5.1,5.1,0,0,0-1.9,4.12h0c.12,1.86-1.23,4.15-2.63,4.47h0c-1.12.25-2.27,1.79-2.57,3.45h0c-.38,2.09-2,3.85-3.23,3.43h0c-.95-.33-2.25.73-2.92,2.37h0c-.83,2.07-2.59,3.09-3.43,2h0c-.67-.87-2-.43-2.92,1h0c-1.19,1.79-2.85,1.94-3.23.29h0c-.3-1.31-1.45-1.53-2.56-.49h0c-1.41,1.31-2.76.58-2.64-1.42h0c.1-1.59-.75-2.46-1.9-1.93h0c-1.45.66-2.33-.87-1.72-3h0c.49-1.67,0-3.07-1-3.12h0c-1.32-.07-1.62-2.21-.6-4.17h0c.81-1.56.81-3.33,0-3.95h0c-1-.79-.72-3.27.6-4.86h0a4.69,4.69,0,0,0,1-4.29h0c-.61-1.41.27-4,1.72-5h0a5.13,5.13,0,0,0,1.9-4.13h0c-.12-1.86,1.23-4.15,2.64-4.46h0c1.11-.26,2.26-1.8,2.56-3.46h0c.38-2.09,2-3.85,3.23-3.43h0c.95.33,2.25-.73,2.92-2.37h0C252.37,287.59,254.13,286.58,255,287.67Z" style="fill:#fff;opacity:0.6000000000000001"></path><ellipse cx="253.25" cy="313.03" rx="24.19" ry="13.68" transform="translate(-133.95 423.49) rotate(-66.95)" style="fill:#407BFF"></ellipse><ellipse cx="253.25" cy="313.03" rx="16.19" ry="9.16" transform="translate(-133.95 423.49) rotate(-66.95)" style="fill:#fafafa"></ellipse><path d="M253.25,328.18c-6.27,3.62-11.37-.23-11.37-8.59s5.1-18.09,11.37-21.71,11.36.24,11.36,8.59S259.51,324.56,253.25,328.18Zm0-28.13c-5.37,3.1-9.74,11.44-9.74,18.6s4.37,10.46,9.74,7.36,9.73-11.44,9.73-18.6S258.61,297,253.25,300.05Z" style="fill:#407BFF"></path><g style="opacity:0.30000000000000004"><path d="M253.25,328.18c-6.27,3.62-11.37-.23-11.37-8.59s5.1-18.09,11.37-21.71,11.36.24,11.36,8.59S259.51,324.56,253.25,328.18Zm0-28.13c-5.37,3.1-9.74,11.44-9.74,18.6s4.37,10.46,9.74,7.36,9.73-11.44,9.73-18.6S258.61,297,253.25,300.05Z"></path></g><polygon points="250.74 322.23 247.46 319.7 249.25 316.26 251.22 317.76 258.61 303.66 259.92 304.71 250.74 322.23" style="fill:#407BFF"></polygon><path d="M267,303l.36.77.81-.31c.2-.07.27.2.13.46l-.58,1.11.14,1c0,.24-.17.55-.35.53l-.72-.09-.73.93c-.17.22-.38.14-.34-.14l.13-1.16-.58-.42c-.14-.1-.07-.46.13-.61l.81-.63.36-1.19C266.65,302.94,266.9,302.8,267,303Z" style="fill:#fafafa"></path><path d="M266.23,309.91l.24.51.54-.2c.13-.05.19.13.09.3l-.39.74.09.67c0,.16-.11.37-.23.36l-.49-.06-.48.62c-.12.15-.25.1-.23-.09l.09-.77-.39-.29c-.1-.07-.05-.31.08-.41l.55-.42.24-.8C266,309.88,266.17,309.78,266.23,309.91Z" style="fill:#fafafa"></path><path d="M266.23,298.16l.24.52.54-.21c.13-.05.19.13.09.31l-.39.74.09.67c0,.16-.11.37-.23.35l-.49-.06-.48.63c-.12.15-.25.09-.23-.09l.09-.78-.39-.28c-.1-.07-.05-.31.08-.41l.55-.43.24-.79C266,298.14,266.17,298,266.23,298.16Z" style="fill:#fafafa"></path><path d="M239.5,318.85l-.36,1.19-.81.63c-.2.15-.27.51-.13.61l.59.43-.14,1.16c0,.27.17.35.34.13l.73-.93.72.09c.18,0,.38-.29.35-.53l-.14-1,.59-1.1c.14-.27.06-.54-.14-.46l-.81.31-.36-.77C239.84,318.42,239.59,318.57,239.5,318.85Z" style="fill:#fafafa"></path><path d="M240.27,324.9l-.25.79-.54.42c-.13.1-.18.35-.09.41l.39.29-.09.78c0,.18.11.24.23.09l.49-.63.48.06c.12,0,.26-.19.23-.35l-.09-.67.4-.74c.09-.18,0-.36-.09-.31l-.55.21-.24-.52C240.49,324.61,240.32,324.7,240.27,324.9Z" style="fill:#fafafa"></path><path d="M240.27,313.15l-.25.8-.54.42c-.13.1-.18.34-.09.41l.39.29-.09.77c0,.19.11.24.23.09l.49-.62.48.06c.12,0,.26-.2.23-.36l-.09-.67.4-.74c.09-.17,0-.35-.09-.3l-.55.2-.24-.51C240.49,312.86,240.32,313,240.27,313.15Z" style="fill:#fafafa"></path></g></g><g id="freepik--Shield--inject-18"><g id="freepik--shield--inject-18"><path d="M226.21,325.59c.07-.9-.13-1.46-.53-1.7h0l-.05,0c-.42-.21-3.2-2-3.59-2.22h0l-.05,0c-.43-.21-1.06-.05-1.84.5-7.75,5.53-18.19,6.58-26,2.83a18,18,0,0,1-2.9-2.88,1.83,1.83,0,0,1-.13-.16h0a2.9,2.9,0,0,0-.75-.65L186.76,319l-.13-.08c-.83-.43-1.62,0-2.17,1.2-7.78,17.58-23.69,35.11-34,39.28a5.75,5.75,0,0,0-2.06,1.43,4.26,4.26,0,0,0-1.23,2.88c-.78,22.91,10.52,60,33.88,73a42.09,42.09,0,0,0,4.28,2.64C219.17,406.67,225.28,352.74,226.21,325.59Z" style="fill:#407BFF"></path><path d="M225.64,323.84c-.42-.21-1.06,0-1.84.5-9,6.44-21.71,6.82-29.6.58,7.79,3.74,18.23,2.69,26-2.84.78-.55,1.41-.71,1.84-.5l.05,0h0C222.44,321.86,225.22,323.63,225.64,323.84Z" style="fill:#fff;opacity:0.6000000000000001"></path><path d="M190.27,321.14c-.84-.44-1.63-.05-2.18,1.19-7.78,17.59-23.68,35.11-34,39.28A5.75,5.75,0,0,0,152,363a5.69,5.69,0,0,0-.79,1.12l-3.62-2.26a5.36,5.36,0,0,1,.78-1.12,5.75,5.75,0,0,1,2.06-1.43c10.34-4.17,26.25-21.7,34-39.28.55-1.24,1.34-1.63,2.17-1.2l.13.08,1.61,1Z" style="fill:#407BFF"></path><path d="M181,436.63c-23.33-13.06-34.62-50.08-33.84-73a4,4,0,0,1,.45-1.76l3.62,2.26a3.86,3.86,0,0,0-.44,1.76C150,387.61,160.09,422,181,436.63Z" style="opacity:0.30000000000000004"></path><path d="M226.21,325.59c-.93,27.16-7,81.08-40.91,113.71-23.81-12.71-35.32-50.25-34.53-73.37a4.26,4.26,0,0,1,1.23-2.88,5.75,5.75,0,0,1,2.06-1.43c10.35-4.17,26.25-21.71,34-39.28.55-1.25,1.34-1.63,2.18-1.2h0l.12.08a2.9,2.9,0,0,1,.75.65h0a1.83,1.83,0,0,0,.13.16c7.31,9.12,22.27,9.62,32.52,2.32.78-.55,1.42-.71,1.84-.5l.05,0h0C226.08,324.13,226.28,324.69,226.21,325.59Z" style="fill:#407BFF"></path><path d="M226.21,325.59c-.93,27.16-7,81.08-40.91,113.71-23.81-12.71-35.32-50.25-34.53-73.37a4.26,4.26,0,0,1,1.23-2.88,5.75,5.75,0,0,1,2.06-1.43c10.35-4.17,26.25-21.71,34-39.28.55-1.25,1.34-1.63,2.18-1.2h0l.12.08a2.9,2.9,0,0,1,.75.65h0a1.83,1.83,0,0,0,.13.16c7.31,9.12,22.27,9.62,32.52,2.32.78-.55,1.42-.71,1.84-.5l.05,0h0C226.08,324.13,226.28,324.69,226.21,325.59Z" style="fill:#fff;opacity:0.4"></path><path d="M190.27,321.14c-.84-.43-1.63-.05-2.18,1.2-7.78,17.57-23.68,35.11-34,39.28a5.75,5.75,0,0,0-2.06,1.43,4.26,4.26,0,0,0-1.23,2.88c-.79,23.12,10.72,60.66,34.53,73.37C203.72,377,190.27,321.14,190.27,321.14Z" style="fill:#407BFF;opacity:0.25"></path><path d="M176.07,399a126.73,126.73,0,0,0,.37-13.79l12.76-7.06a115,115,0,0,0-.09-14.22c4.82-2.59,6.91-3.69,11.88-6.26a124.66,124.66,0,0,1,.74,13.79h0c5-2.59,6.53-3.41,11.63-6a104.53,104.53,0,0,1-2,14.47c-5.19,2.61-5.53,2.78-10.54,5.36-.8,5.49-1.46,8.86-2.56,14-4.55,2.37-6.74,3.56-11.26,6.14a108.33,108.33,0,0,0,2.13-13.76C184.56,394.38,180.7,396.48,176.07,399Z" style="fill:#fafafa"></path><path d="M189.2,378.16l-12.76,7.06a126.73,126.73,0,0,1-.37,13.79c4.63-2.53,8.49-4.63,13.1-7.3A108.33,108.33,0,0,1,187,405.47c2.42-1.38,4.17-2.36,6-3.34a262.25,262.25,0,0,0,1.85-41.25c-1.7.89-3.4,1.8-5.75,3.06A115,115,0,0,1,189.2,378.16Z" style="fill:#ebebeb"></path><path d="M202.2,333.78c8.1,2.36,15.45-1,19.66-3,0,0-.67,47.95-18.23,78.38,7.34-24,6.83-29,7.9-46.89C212.59,344.69,208.24,338.39,202.2,333.78Z" style="fill:#fff;opacity:0.4"></path></g></g><g id="freepik--character-2--inject-18"><g id="freepik--Character--inject-18"><g id="freepik--Bottom--inject-18"><path d="M369.27,362c.69,8.65,1,16,.9,17.43a17.24,17.24,0,0,1-5.42,10.94c-4.52,4.63-7.73,6.48-13.36,10.48.75,2.14,12.33,2.35,15.65.82a121.28,121.28,0,0,0,14-7.8c4.63-3.26,5.74-5.27,5.94-10.4,0-.64.5-4.81.46-5.1.06-1.2.78-7.7,1.72-15.7Z" style="fill:#c8856a"></path><path d="M437.31,380.35l-.53-20.63-20.34,1,3.74,20.57s2.61,27.5,3.69,32c3.49,14.47,15.23,8.63,16.63,1C441.42,409.15,437.31,380.35,437.31,380.35Z" style="fill:#c8856a"></path><path d="M342.17,409c-.3,0-.54,3.36,1.18,4.66,2,1.5,7.66,3.81,14.88,2.39s11-3.94,13.77-6.58,6.61-6.36,9.85-7.3c3-.88,7.88-2.94,8.8-3.95s.51-5.23.51-5.23Z" style="fill:#263238"></path><path d="M387.46,378.4a2.25,2.25,0,0,1,1.26,1.36c.3,1.15.41,2.64,1,4.52.84,2.61,1.64,8,1.38,10.21s-6.78,4.46-9.89,5.89a40.66,40.66,0,0,0-9.89,7.22c-3.24,3.06-10.25,6.37-15,6.75-7.24.58-12-1.09-13.67-3.6-2-3.12-1.33-6.53,6.74-10.95,1.53-.84,6.85-4.49,8.66-5.8a42.22,42.22,0,0,0,5.38-4.61,32,32,0,0,0,2.38-2.69,11.5,11.5,0,0,0,1.93-2.84c.08-.23.13-.49.2-.72a12.48,12.48,0,0,0,.42-2c.09-.7.1-1.72.74-2.18s11.1.91,11.9,2a6.2,6.2,0,0,1,.88,3c.05.49.07,1,.11,1.47,0,.2-.05.59.24.48s.53-.85.62-1.11c.19-.56.3-1.15.52-1.7a5,5,0,0,1,.92-1.84c1.31-1.26,2.67-1.12,3-1.55C387.35,379.71,387.44,378.82,387.46,378.4Z" style="fill:#37474f"></path><path d="M349,400c10.53,0,14,8.26,14.71,12.25a24.34,24.34,0,0,1-7.34,2.06c-7.24.58-12.35-1.06-14-3.58C340.48,407.83,341.72,403.36,349,400Z" style="fill:#fafafa"></path><path d="M364.44,401.05a.49.49,0,0,0,.32-.14.52.52,0,0,0,0-.73c-1.58-1.7-6.55-5.24-10.34-4.58a.52.52,0,0,0-.42.6.51.51,0,0,0,.6.42c3.53-.61,8.16,2.92,9.41,4.27A.51.51,0,0,0,364.44,401.05Z" style="fill:#f5f5f5"></path><path d="M368.79,398.11a.49.49,0,0,0,.31-.14.51.51,0,0,0,0-.72c-1.58-1.7-6.55-5.26-10.33-4.58a.51.51,0,0,0-.42.59.5.5,0,0,0,.59.42c3.53-.61,8.16,2.92,9.41,4.27A.5.5,0,0,0,368.79,398.11Z" style="fill:#f5f5f5"></path><path d="M372.78,394.82a.49.49,0,0,0,.31-.14.52.52,0,0,0,0-.73c-1.58-1.7-6.57-5.24-10.34-4.57a.51.51,0,0,0,.18,1c3.53-.61,8.16,2.92,9.41,4.27A.5.5,0,0,0,372.78,394.82Z" style="fill:#f5f5f5"></path><path d="M376.68,391.53a.48.48,0,0,0,.31-.13.52.52,0,0,0,0-.73c-2.18-2.41-7.44-5.24-11.21-4.57a.52.52,0,0,0-.42.6.5.5,0,0,0,.59.41c3.4-.59,8.35,2.11,10.28,4.26A.49.49,0,0,0,376.68,391.53Z" style="fill:#f5f5f5"></path><path d="M421.48,417.47c.36,5.18,1.2,8.6,3.06,11.62s5.32,3.93,8.81,3,7.93-3.36,8.89-7.83,1.5-7.55.66-12.34Z" style="fill:#263238"></path><path d="M437.31,380.35c1.69-.16,1.56,6.63,2.46,13.58,1,7.45,2.07,10.39,2.93,16.5,1,7-.13,10.12-2.53,14.37s-11,8.49-15.3,2.49c-3.52-4.9-3.72-10.36-3.48-17.35a101.71,101.71,0,0,0-1.14-17.49c-.66-5.64-1.31-10.56-.07-11.15l.75,5.42c.15.39.72,1.35.93-.11.06-.43-.09-1.43-.05-1.86a1.83,1.83,0,0,1,1.29-1.69,13.86,13.86,0,0,1,6.12-1.42c2.81,0,5.24-.16,6.82.62.95.48.93,1.38,1,2.26.13,1.05.15,1.7.41,1.49C438,385.58,437.31,380.35,437.31,380.35Z" style="fill:#37474f"></path><path d="M443.15,414.48a17.57,17.57,0,0,1-2.58,10.65c-2.4,4.25-11.68,8.51-16,2.51-2.15-3-2.75-6.54-3.08-10.17C424,412.78,439.08,410.55,443.15,414.48Z" style="fill:#fafafa"></path><path d="M424.55,409.84a.49.49,0,0,0,.17-.06c.06,0,6.7-2.87,13.2-1.43a.54.54,0,0,0,.23-1.05c-6.88-1.51-13.64,1.4-13.9,1.52a.54.54,0,0,0,.3,1Z" style="fill:#f5f5f5"></path><path d="M437.54,403.14a.53.53,0,0,0,.11-1c-6.48-2.12-13.61,1.25-13.88,1.4a.53.53,0,0,0-.22.72.54.54,0,0,0,.73.22c.06,0,7-3.3,13-1.32A.46.46,0,0,0,437.54,403.14Z" style="fill:#f5f5f5"></path><path d="M437.26,398.24a.56.56,0,0,0,.45-.36.54.54,0,0,0-.33-.68c-7.13-2.48-13.89,1.2-14.14,1.36a.53.53,0,0,0-.18.73.54.54,0,0,0,.74.18c.06,0,6.59-3.56,13.23-1.26A.61.61,0,0,0,437.26,398.24Z" style="fill:#f5f5f5"></path><path d="M436.86,393.4a.53.53,0,0,0,.12-1c-6.68-2.43-14,1.34-14.23,1.51a.53.53,0,0,0-.19.73.52.52,0,0,0,.73.19c.06,0,7.12-3.68,13.33-1.43A.5.5,0,0,0,436.86,393.4Z" style="fill:#ebebeb"></path><path d="M428.88,216.21c1.36,13.55,1.83,16.89,2.78,47,.92,29.19.93,33.47,1.09,37,.37,8.07,5,11.3,5.35,30.33.34,17.43-.26,38.79-.26,38.79s-3.19,2.94-9.81,3.3a20.9,20.9,0,0,1-10.42-2.07s-8.87-39.08-11.65-51.1c-3.28-14.14-8.59-38.76-8.59-38.76s-2.68,22-3.68,29c-1,6.75,1.36,9.38-.09,24.51-1.16,12-4.6,32.19-4.6,32.19a20.93,20.93,0,0,1-9.9,2.38c-7.57-.35-10-2.95-10-2.95s-4.24-45.07-4.28-62.31c0-18.25-.42-60.55,1.52-87.34Z" style="fill:#37474f"></path><path d="M397.37,280.69l-3.89-30.32s-9.84-3-16-9.91c.3,5,8.91,11.73,13,12.87l4.58,26.91-1.4,29.49Z" style="fill:#263238"></path><path d="M411,220.26a40.85,40.85,0,0,1,3.45,8,75.72,75.72,0,0,1,2.18,8.47,87.09,87.09,0,0,1,1.27,8.65,56.67,56.67,0,0,1,.27,8.74c-.59-2.86-1.14-5.7-1.68-8.54s-1.07-5.67-1.65-8.49-1.15-5.64-1.76-8.45S411.81,223.07,411,220.26Z" style="fill:#263238"></path><path d="M414.8,221.44a32.35,32.35,0,0,1,3.77,4.57,42.54,42.54,0,0,1,3,5.09,37,37,0,0,1,2.23,5.5,23.6,23.6,0,0,1,1.13,5.83l-2.46-5.31c-.83-1.74-1.66-3.48-2.53-5.2s-1.74-3.44-2.61-5.18S415.59,223.27,414.8,221.44Z" style="fill:#263238"></path><path d="M408.74,255c.94,9.08,1.74,18.17,2.56,27.24s2.66,19.13,4,28.11,7.77,44.33,8.83,53.39c-1.76-8.95-9.21-44.07-10.64-53.12s-3.05-19.16-3.61-28.27S409,264.07,408.74,255Z" style="fill:#263238"></path><path d="M374.79,254.56l-1,23.81c-.12,4-.29,7.93-.38,11.9s-.23,7.94-.08,11.84,1.28,41.89.92,49.85c-1.13-8.83-2.3-41.78-2.75-49.77-.15-8,.35-15.95.87-23.9S373.75,262.44,374.79,254.56Z" style="fill:#263238"></path><path d="M389.89,361.79l-1.12,8.35s-4.15,2-11.09,1.6-8.55-2.82-8.55-2.82l-.68-7.91s2.61,2,9,2.32C385.63,363.69,389.89,361.79,389.89,361.79Z" style="fill:#37474f"></path><path d="M438.21,363.46,438,371.8s-3.29,2.66-10.21,3.34-10-1.81-10-1.81L416.33,366s3.47,1.47,9.81.91A38,38,0,0,0,438.21,363.46Z" style="fill:#37474f"></path></g><g id="freepik--Top--inject-18"><g id="freepik--Arm--inject-18"><path d="M339.22,204.45c3.86,2.34,13.65-.84,18.72-6.26s23.16-24,23.16-24l.77-30.62s-6.82-.71-11.64,3.74-18.5,27.25-22.27,33.56S339.22,204.45,339.22,204.45Z" style="fill:#af6152"></path><path d="M383.28,143.08c-5.73-.68-11.6-.83-18.07,8.51a115.33,115.33,0,0,0-8.85,14.67,19.14,19.14,0,0,0,4.06,13c4.89,6,10.41,6.22,10.41,6.22l10.55-10.24Z" style="fill:#37474f"></path></g><path d="M419.15,150.38c-11.34-3.42-35.12-13.16-46.6-3.74-12.75,14.15-5.3,43.08-7.76,78.13,7.79,15,46.79,15.22,66.5,8.93-.22-15.21-1.28-30.25-1.77-47.35S430.34,158.38,419.15,150.38Z" style="fill:#455a64"></path><g id="freepik--Head--inject-18"><path d="M403,137.7c1-4.76,5.9-9.59,8.18-13.69,2.2-4,3.53-7,3.42-10.82-.06-2.24-1.37-5.32-3-6A10.4,10.4,0,0,0,404.4,94a34.63,34.63,0,0,1-4.54-1.43c-1.78-.81-2.14-2.28-3.55-3.56-2.43-2.21-6.65-2.39-8.36.77-1.59-2.21-3.85-2.23-6.48-1.65A4.47,4.47,0,0,0,377.88,93c-3.42-2.07-6.7.29-7.09,2.33-.29,1.51,0,2.79-1.05,4.12-1.16,1.49-3.27,1.39-3.87.14-.43,2.13.35,3.8,2.69,3.76a4.89,4.89,0,0,0-.74,4.08,4.46,4.46,0,0,0,3.92,3.21,7.65,7.65,0,0,0,.93,3.31,7.88,7.88,0,0,0,2.66,2.57c3.48,1.8,7.37,2.47,11.14,3.39L391,121c.26.07,1.62.19,1.78.43Z" style="fill:#263238"></path><path d="M409,131.7c-3.43,1.9-5.84-2.14-5.84-2.14l.41,17c-3.07,5.95-11.84,10.56-18.79,8.67-4.47-1.21-3-5-1.11-7.77V141.7a45.6,45.6,0,0,1-5.68-.44c-3.74-.64-6.46-3.77-7.39-7.87a42.19,42.19,0,0,1,.07-16.11,13.67,13.67,0,0,0,.33-3.93c-.24-3.5.45-5.51,1.45-8.41,4.24-3.18,13.82-4,22.54,1.71-1.21,5.26.71,9.52,4.5,11.67-.23,1.42-.53,5,1.82,5,1.7,0,1.88-2.12,3.68-3.93s5.88-2.18,7.36.63C414.43,124,412.78,129.63,409,131.7Z" style="fill:#c8856a"></path><path d="M394.6,115.37l11.16,3.46a4.59,4.59,0,0,0-1.69,1.76l-9.75-2.6Z" style="fill:#263238"></path><path d="M367.81,112.37a3.14,3.14,0,0,0,.38,1.75,1.26,1.26,0,0,1,.16.62,30.65,30.65,0,0,0,.12,4.66,4.54,4.54,0,0,0,4,3.9,6.12,6.12,0,0,0,1.63.07h.12a4.24,4.24,0,0,0,1.39-.37l.09,0,.12-.06a.57.57,0,0,0,.16-.08l.15-.08.16-.11.16-.11.29-.23a6.88,6.88,0,0,0,1.35-1.61c.94-1.5,1.15-3.74,2.29-3.84h.14l.14,0c1.48.22.92,2.61,1.47,4.46a5.51,5.51,0,0,0,4.95,4.28l.42,0,.35,0a5.44,5.44,0,0,0,.81,0l.25,0,.25,0,.16,0a4.81,4.81,0,0,0,.95-.32l.33-.18a3.9,3.9,0,0,0,.59-.41,5.87,5.87,0,0,0,1.22-1.5,30.46,30.46,0,0,0,1.53-4.41,1.86,1.86,0,0,1,.33-.61,3.17,3.17,0,0,0,.95-1.51,1.38,1.38,0,0,0-.7-1.52l-.77-.22a23.31,23.31,0,0,0-7.82-1c-2.59.37-3.58,1.09-5,.88s-2-1.18-4.18-2.29c-1.75-.89-4.83-1.28-7.22-1.38l-.75,0C368.45,111.09,367.9,111.66,367.81,112.37Zm16,3.83a2.41,2.41,0,0,1,.81-.51l.14,0,.08,0,.37-.13.35-.09a9.49,9.49,0,0,1,1.11-.21l.44,0a8.38,8.38,0,0,1,1.12,0h.26c2.41.12,3.82.91,4.29,1.5s-.1,2.91-.5,4.07l0,.09,0,.09a4.61,4.61,0,0,1-.17.47l-.12.29h0a3.49,3.49,0,0,1-.23.48h0l-.09.17-.06.1a.61.61,0,0,1-.07.1,1,1,0,0,1-.08.14l-.11.15-.12.15a1,1,0,0,1-.13.16,3.85,3.85,0,0,1-3.65,1.25,4.45,4.45,0,0,1-3.36-2h0a5.46,5.46,0,0,1-.77-2.59C383.17,118.43,383.25,116.86,383.83,116.2ZM370,113.08a2.32,2.32,0,0,1,.65-.31h.05l.28-.07.17,0,.14,0h.26a5.24,5.24,0,0,1,.57,0h.62l.38,0,.14,0,.13,0a10.48,10.48,0,0,1,1.08.26c1.65.48,3.28,1.55,3.61,2.34s0,2.32-.49,3.61a6.63,6.63,0,0,1-.37.87l0,.06a.41.41,0,0,1-.05.09l0,.06-.06.1-.13.21-.12.17-.05.07-.1.11a.39.39,0,0,1-.08.1s0,0,0,0a3.94,3.94,0,0,1-3.92,1.26,4,4,0,0,1-1.73-.71c-1.55-1.16-1.59-3.25-1.61-4.22C369.27,115.89,369.39,113.52,370,113.08Z" style="fill:#37474f"></path><path d="M381.92,119.93l-2,7.91-5.55-3.13c.24-.34.51-.67.76-1s.32-.45.49-.66.42-.6.64-.89c.68-.91,1.36-1.79,2-2.57.21-.27.49-.59.79-.92a24,24,0,0,1,1.7-1.8C381.84,117,381.77,118.47,381.92,119.93Z" style="fill:#af6152"></path><path d="M382.09,131.14a1.13,1.13,0,0,0,1,1.25,1.15,1.15,0,0,0,1.25-1,1.14,1.14,0,1,0-2.26-.24Z" style="fill:#af6152"></path><path d="M383.69,141.7c5.88-.07,10.51-1,13.75-5.21a37.54,37.54,0,0,0,3.82-6.93,29.1,29.1,0,0,1-2.85,8.75c-1.58,2.7-5.32,5.16-14.67,5.65Z" style="fill:#af6152"></path><path d="M384.8,119.23a1.68,1.68,0,1,0,1.81-1.6A1.71,1.71,0,0,0,384.8,119.23Z" style="fill:#263238"></path><path d="M386.27,111l3.54,2a2.15,2.15,0,0,0-.78-2.87A2,2,0,0,0,386.27,111Z" style="fill:#263238"></path><path d="M373.49,110.6l3.92-1.28a2,2,0,0,0-2.54-1.36A2.16,2.16,0,0,0,373.49,110.6Z" style="fill:#263238"></path><path d="M372.76,117.46a1.67,1.67,0,1,0,1.66-1.75A1.7,1.7,0,0,0,372.76,117.46Z" style="fill:#263238"></path><path d="M395.61,129.82a2,2,0,0,0-2.56.94,34.15,34.15,0,0,1-3,4.61c-1.71,2.39,4.7,4.06,4.7,4.06s3.25-2,5.45-7.61Z" style="fill:#ffa8a7"></path><path d="M395.51,131.76a.61.61,0,0,0-.78.25c-.47.84-1.48,2.59-2.28,3.72a.6.6,0,0,0,.16.86,16.82,16.82,0,0,0,3.57,1.64,17.87,17.87,0,0,0,3.31-4.77Z" style="fill:#f28f8f"></path></g><g id="freepik--arm--inject-18"><path d="M339.22,204.45c-2.39-1.5-4.38-7.6-2.31-15.13,1.63-5.9,5.2-9.39,9.93-15.12,6-7.28,9.81-10.34,9.42-17.18-.3-5.36-.73-5.94.67-9.54.74-1.92,2.47-6.3,3.16-7.8s3.23-4.24,4.92-6.74,2.86.46,2.42,2.25a23.18,23.18,0,0,1-2.38,5.45,30.65,30.65,0,0,0-1.57,4.65,27,27,0,0,1,5.31-1.18c1-.05,2.15-.31,2.9.51a7.36,7.36,0,0,1,.93,2,1.51,1.51,0,0,1,1,.37,2.45,2.45,0,0,1,.52,1.72,8.18,8.18,0,0,1-.11,1,1.81,1.81,0,0,1,1.45,1,7.84,7.84,0,0,1,.31,4.17c-.07.2-.84,1.79-1.06,2.25a4,4,0,0,1-.91,1.57c-.49.36-1.7-.54-1.86-1.34a8.23,8.23,0,0,1,.06-2.66,8.84,8.84,0,0,1-2.25.87c-1.13.77.58,2.43,0,7.1-.47,3.52-3.41,5.86-4.22,7.39-4.92,9.35-5.62,19.49-11.48,27.18C351.65,200.36,343.85,207.36,339.22,204.45Z" style="fill:#c8856a"></path><path d="M360.59,146.88a12.09,12.09,0,0,1,2.89-1.59c.1-.3.19-.61.28-.91C362.46,145,360.92,145.86,360.59,146.88Zm1.3,3A4.11,4.11,0,0,1,363,149a8.15,8.15,0,0,1,1.27-.59,18.79,18.79,0,0,1,2.72-.74c.92-.22,1.85-.41,2.78-.61a26.29,26.29,0,0,1,2.82-.45,11.18,11.18,0,0,0-2.89,0,25.17,25.17,0,0,0-2.84.49,12.17,12.17,0,0,0-2.76.89A5.19,5.19,0,0,0,361.89,149.86Zm3.79,1.39a5.46,5.46,0,0,0-2.37,1.54,3.66,3.66,0,0,1,1.2-.68c.43-.17.87-.33,1.31-.46.89-.27,1.79-.52,2.69-.75,1.81-.45,3.62-.88,5.48-1.18a13.36,13.36,0,0,0-2.83.11,24.1,24.1,0,0,0-2.79.54A19.66,19.66,0,0,0,365.68,151.25Zm6.24,6.16a4.38,4.38,0,0,1,.12-1.17,7.59,7.59,0,0,1,.32-1,1.67,1.67,0,0,0,.32-.08,1.8,1.8,0,0,0,.43-.29,1.69,1.69,0,0,0,.48-.81,3.8,3.8,0,0,1-.7.5,2.13,2.13,0,0,1-.37.14,1.26,1.26,0,0,1-.32,0l-.22,0-.08.23a3.41,3.41,0,0,0-.19,1.11A2.31,2.31,0,0,0,371.92,157.41Z" style="fill:#af6152"></path></g><path d="M396.65,216.21c-4.35-.52-5.07-4.82-6-13.73s.11-11.23,4.73-10.87,37.21,2.8,37.21,2.8l-8.88,23.45Z" style="fill:#407BFF"></path><path d="M396.65,216.21c-4.35-.52-5.07-4.82-6-13.73s.11-11.23,4.73-10.87,37.21,2.8,37.21,2.8l-8.88,23.45Z" style="opacity:0.30000000000000004"></path><path d="M419,151.24c7.43,2.71,9.77,4.34,12.55,11.52s7.1,30.08,8.71,38.68,3.22,14.67-10,15.39-32.34-3.42-36.8-3.94c-2.84-.34-5.68.19-8.52.29a34.39,34.39,0,0,1-9.38-.78c-2.3-.55-5.84-1.29-7.32-3.24a16.22,16.22,0,0,1-1.53-2.69l-.77-1.55a6.38,6.38,0,0,1-.94-3.66,8.77,8.77,0,0,0,.2-1.14,4.67,4.67,0,0,0-1-2.41,2.29,2.29,0,0,1-.26-2.5c.62-.83,1.9-.62,2.91-.34a53.54,53.54,0,0,0,11.39,1.8c.43,0,1,0,1.13-.41a1.07,1.07,0,0,0-.08-.8,43,43,0,0,1-2-4.65c-.43-1.63-.2-3.61,1.14-4.63a1.22,1.22,0,0,1,.59-.29c.71-.12,1.24.61,1.62,1.22a16.3,16.3,0,0,0,5.26,5.19,41.5,41.5,0,0,1,4,2.36c1.08.84,2,1.92,3,2.78a6.94,6.94,0,0,0,1.08.71c2.11,1.11,5,.88,7.35.86,2.64,0,5.27-.15,7.91-.28,3.38-.18,6.76-.39,10.14-.66l-6.12-22.43S408.09,158.15,419,151.24Z" style="fill:#c8856a"></path><path d="M419.15,150.38c6,2,9.67,4,11.85,8.85s5.83,20.33,5.83,20.33a26.45,26.45,0,0,0-10.58-.29c-5.43,1.07-11.38,4.8-11.38,4.8s-2-8.13-3.46-13.12S411.64,154.89,419.15,150.38Z" style="fill:#37474f"></path><path d="M377.7,193.24c2.33-2,4.82-3.19,6.54-2.79,2,1.62,4.16,2.92,6.15,4.31s3.2,3.28,7.14,3.48S418.12,197,418.12,197l-2.47-9.65s2.32-3.41,10-4.62,11.94,1.32,11.94,1.32,3.55,16,4.36,21.07.09,8.66-2.33,10.8-9.61,2.62-17.1,1.92S397.3,214,394,213.54s-14.48,1.36-19.09-.89c-6.7-7-1.28-17-1.28-17a26,26,0,0,0,4.25.37C378.76,195.93,379.15,195.76,377.7,193.24Z" style="fill:#e0e0e0"></path><path d="M418.12,197a33.67,33.67,0,0,1,10.9,1.17s-2.53-3-11.31-2.78Z" style="opacity:0.1"></path><path d="M376.52,200.57c.2-1.07.65-2,.93-3.06.05-.19-.2-.59-.4-.37-1.37,1.53-1.58,4.06-1.5,6a21.39,21.39,0,0,0,2,7.76c.06.13.17,0,.16-.08a62.91,62.91,0,0,1-1.34-7.2A12.64,12.64,0,0,1,376.52,200.57Zm16.34-2.49A13.11,13.11,0,0,0,389.79,211c0,.11.12,0,.1-.07a15.87,15.87,0,0,1,.19-6.86,16.89,16.89,0,0,1,2.91-5.77C393.05,198.22,393,198,392.86,198.08Zm2.55,8.3a19.07,19.07,0,0,1-.5-6.73c0-.22-.32-.53-.38-.22a15.58,15.58,0,0,0,.3,7,16.31,16.31,0,0,0,1.35,3.43c.67,1.25,1.49,2.41,2.1,3.69,0,.08.1,0,.08-.09C397.47,211.05,396.08,208.87,395.41,206.38Zm16.43.59a24.69,24.69,0,0,0-1.91-3.94,12.94,12.94,0,0,0-2.74-3.53c-.11-.09-.13.15-.1.21.74,1.19,1.66,2.25,2.38,3.46a23.25,23.25,0,0,1,1.84,3.91,24.11,24.11,0,0,1,1.1,4.08,33.13,33.13,0,0,1,.57,4.66c0,.11.1.11.11,0a17,17,0,0,0-.11-4.62A23.81,23.81,0,0,0,411.84,207Zm1.5-8.24c-.25-.18-.24.27-.12.4,1,1,2,1.88,2.83,2.94a25.68,25.68,0,0,1,2.53,3.58,31.53,31.53,0,0,1,3.11,7.64c0,.12.13,0,.12,0a22.1,22.1,0,0,0-2.95-8.09A21.43,21.43,0,0,0,413.34,198.73Zm19.46,6.86a23.15,23.15,0,0,0-10.94-7.11c-.23-.07-.19.34,0,.4a23.9,23.9,0,0,1,7.43,3.93,25.28,25.28,0,0,1,3.14,3c1,1.17,1.85,2.48,2.76,3.74.12.17.24,0,.18-.17A15.12,15.12,0,0,0,432.8,205.59Zm6.46-6.46a20.66,20.66,0,0,0-4.2-1.38c-.71-.18-1.41-.35-2.13-.48a8.23,8.23,0,0,0-1.85-.18c-.13,0-.08.24,0,.27,1.3.46,2.71.65,4.06,1s2.72.86,4.1,1.15C439.44,199.53,439.36,199.18,439.26,199.13ZM420.07,190c1.3-.28,2.55-.82,3.86-1.13a25.62,25.62,0,0,1,4-.63,44.56,44.56,0,0,1,8.16.41c.06,0,.07-.13,0-.15a19.31,19.31,0,0,0-8.44-.85,25.3,25.3,0,0,0-3.86.65,12.44,12.44,0,0,0-3.84,1.38C419.87,189.72,419.93,190,420.07,190Z" style="opacity:0.1"></path><path d="M398.42,195.4c2,8.52,3.11,20.58-1.77,20.81,0,0,18.08,2.52,27.48,3.25s15.63-.35,17.53-4c1.27-2.4,2.25-7.41.61-14.75s-2-7.91-2-7.91l-37.73-2.36A4,4,0,0,0,398.42,195.4Z" style="fill:#407BFF"></path><path d="M440.3,192.85l-13-.81c3.6,1.44,7.07,3.43,8.72,7.13a16.4,16.4,0,0,1,1,3.67,37.33,37.33,0,0,1,.58,5.06,8.87,8.87,0,0,1-.47,3.87c-1.54,3.63-7.9,2.79-11.1,2.84-8.81.12-17.54-1.48-26.33-2.05-.49,2.16-1.45,3.57-3.09,3.65,0,0,18.08,2.52,27.48,3.25s15.63-.35,17.53-4c1.27-2.4,2.25-7.41.61-14.75S440.3,192.85,440.3,192.85Z" style="opacity:0.1"></path><path d="M401.71,193.24s-11.19-17.48-17.36-29.94-.66-20.49-.66-20.49v4.64a62,62,0,0,0,6.92,19.1c5.71,10.15,16.06,27.08,16.06,27.08Z" style="fill:#263238"></path><polygon points="400.67 192.49 407.08 192.92 407.08 194.41 400.67 194.04 400.67 192.49" style="fill:#fafafa"></polygon></g></g></g><g id="freepik--character-1--inject-18"><g id="freepik--character--inject-18"><g id="freepik--bottom--inject-18"><g id="freepik--bottom--inject-18"><polygon points="109.88 414.02 113.58 412.26 109.95 411.23 109.88 414.02" style="fill:#263238"></polygon><path d="M146.47,421s-43.45-19.72-44-16.82a4.41,4.41,0,0,0,0,1.74c0-.05-.08-.1-.11-.16l.77,5.42a13,13,0,0,0,6.76,2.85c0-.26.05-1.87.07-2.79a22.75,22.75,0,0,1,3.83,2c2.78,1.84,4.55,5.05,7.5,8.78,2.14,2.72,6,4,11.69,4.84,6.13.91,11.55-.22,13.09-1.84C147.29,423.76,146.69,421.37,146.47,421Z" style="fill:#263238"></path><path d="M145.28,420c-.42-.44-2-2.14-4.05-4a82.11,82.11,0,0,0-6.26-5.33,25.32,25.32,0,0,1-3.1-2.57,32.28,32.28,0,0,1-2.15-2.53,46,46,0,0,1-5.2-8.85,20.39,20.39,0,0,1-1.81-4.64,29.61,29.61,0,0,1-.48-5.14c0-7.77.18-9,.25-14.92l-18.42.48c.58,3.28,1.47,7.76,1.76,11.49.45,5.67.59,6.93-1.68,12.56-.67,1.66-1.67,3.25-1.76,5-.16,2.9,2.13,5.42,4.69,6.85,2.13,1.19,4.59,1.71,6.65,3a21.21,21.21,0,0,1,5.39,5.3c1.45,1.86,2.62,4.06,4.67,5.37a19.3,19.3,0,0,0,7.08,2.48,38.92,38.92,0,0,0,9.54.54C144.93,424.76,148.31,423.15,145.28,420Z" style="fill:#ffbda7"></path><path d="M142.8,416.8c-1.87-1.58-4.51-3.83-7.71-6.36a8.31,8.31,0,0,0-6.77.56c-6.5,3.32-7.63,8.07-7.63,8.07a9.23,9.23,0,0,0,5.25,4.61c7.46,3.27,20.86,2.34,21-1.06C147.05,420.45,145.07,418.71,142.8,416.8Zm-38.24-21.5a36.07,36.07,0,0,1-1.6,3.3,6.06,6.06,0,0,0,0,6.56,10,10,0,0,0,6.53,4.45C111.63,403.17,107.15,396.72,104.56,395.3Z" style="fill:#37474f"></path><path d="M69.1,401.12c1.2,1.95-.32,9.28,0,14.51.27,4.74,1.56,13,.14,17.7-1.69,5.55-5.14,12-11.63,6.75-4-3.24-6.34-7.42-6.91-14.25-.4-4.75,1.45-11.31,3-17.13,1.86-6.8,2.56-10.43,2.56-10.43Z" style="fill:#263238"></path><path d="M56.08,366c-.48,11.08.84,18.85.91,25.95a48.76,48.76,0,0,1-1,9.58c-.94,4.52-2.55,10.82-3.23,13.75-.94,4.1-1.66,6.68-.22,11.28a6.09,6.09,0,0,0,.48,1c2,3.78,7.13,6.65,8.78,6.19a2.87,2.87,0,0,0,2.88,1,5.29,5.29,0,0,0,.54-.13,3.71,3.71,0,0,0,.55-.22A5.52,5.52,0,0,0,68.47,431a9.29,9.29,0,0,0,.26-1c1.2-5.7.57-9.53.54-11.76,0-3.07,0-6.05.26-10.21s.91-16.87,2.38-23.11c1.09-4.35,2.46-9.81,3.89-15.64Z" style="fill:#ffbda7"></path><path d="M51.73,420.61c4-1.75,15.76-2,17.62,3.61.05,5.27.09,8.84-3.31,13.43-4.5,6.09-10.38-.37-12.63-4.47S51.18,423.45,51.73,420.61Z" style="fill:#37474f"></path><path d="M71.35,221.32c-5.7,10-10.31,18.51-11.79,45-1.68,29.94-1.43,41.34-1.58,45s-2.51,10.24-4.53,28,.11,60.93.11,60.93,1.43,2.91,8.36,3.57c6.39.6,10.15-1.6,10.15-1.6s10.16-56.64,12.66-67.35S94.55,289,94.55,289L97,322.59s-2,9.81-.19,25.44,6.55,45.17,6.55,45.17,2.71,2.7,11.08,2.54c8.89-.17,10.74-2.6,10.74-2.6s2-63.53,2.13-81.23,1.18-63.66-4.3-89.9Z" style="fill:#455a64"></path><path d="M100.52,255l-6,34L97,322.59v-34l5.32-27.89c4.35-1,14.28-6,17-13.32C112.58,254.23,100.52,255,100.52,255ZM80.35,234.94c.79-2.85,1.62-5.69,2.55-8.54a42.15,42.15,0,0,0-4,8.09,77,77,0,0,0-2.67,8.6,87.85,87.85,0,0,0-1.72,8.81,57,57,0,0,0-.67,9c.75-2.91,1.45-5.79,2.14-8.68s1.38-5.77,2.11-8.64S79.58,237.8,80.35,234.94ZM76,232.77c1-1.74,2-3.48,2.91-5.32A32.25,32.25,0,0,0,74.75,232a44.12,44.12,0,0,0-3.39,5.09,38.78,38.78,0,0,0-2.59,5.54,23.87,23.87,0,0,0-1.44,5.94l2.82-5.34c.95-1.75,1.89-3.5,2.89-5.22S75,234.51,76,232.77ZM71.53,346.39q-2.62,13.8-4.9,27.68Q70,360.41,73,346.68c2-9.15,4-18.29,5.85-27.5s3-18.55,4-27.87,1.76-18.65,2.41-28c-1.39,9.27-2.64,18.55-3.9,27.83s-2.6,18.53-4.4,27.68S73.26,337.19,71.53,346.39Zm47.69-45.63c.16,4.06.37,8.14.27,12.16s.08,11.77-.16,15.84c0,0-.23,23.92.49,33,1-8.1,1.25-40.58,1.6-48.79,0-8.25-.62-16.36-1.3-24.5s-1.65-16.25-2.87-24.33l1.38,24.43C118.82,292.63,119.06,296.69,119.22,300.76Z" style="fill:#37474f"></path></g></g><g id="freepik--top--inject-18"><path d="M75.49,120.75c-.07.38-1.21,1.14-1.53,1.49a14.52,14.52,0,0,0-1.83,2.31,12.11,12.11,0,0,0-1.59,5.91,18.53,18.53,0,0,0,2.55,9,54.37,54.37,0,0,0,5.51,7.74l5.12,6.39a3.3,3.3,0,0,0,1.34,1.15,3.21,3.21,0,0,0,1.57,0c2.67-.41,5.33-.85,8-1.34a38.17,38.17,0,0,0,7.23-1.85,20.79,20.79,0,0,0,9.52-7.76c1.06-1.57,2.46-3.79,2.66-5.72.09-.88-.33-1.63-.11-2.53.28-1.16,1.18-2.08,1.67-3.15a16,16,0,0,0,1.65-8c-.52-5.66-4-13-14.42-15.11C94.15,107.6,77.6,109.5,75.49,120.75Z" style="fill:#263238"></path><path d="M205.65,177.34a5.33,5.33,0,0,0-3.05-.58,34.41,34.41,0,0,0-4.91,1.18c-2.51.57-6.55,1.53-9.05.73-.51-.16-1.51-.65-.64-1.09a22.53,22.53,0,0,0,3.36-1.8,4.52,4.52,0,0,0,2-3.1,1.54,1.54,0,0,0-.26-1.09c-.34-.42-.68-.3-1.08-.15a10.37,10.37,0,0,1-1.32.37c-.92.22-1.83.45-2.74.69-5.33,1.39-10.77,3.23-14.76,7.11-.58.57-1.87,2.39-7.8,5.82-5.68,3.29-20.26,11.47-20.26,11.47s-10.65-13.55-14.38-18.32c-6.6-8.44-8.5-10.83-17.52-12.39l2.68,28.2s14.06,16.17,19,20c6.75,5.28,8.57,4.76,14,1.52,7.13-4.24,10-6.91,15.68-11.72,6.9-5.85,9.34-7.82,11.6-9.47s5.71-1.68,7.41-1.74a25.57,25.57,0,0,0,6.91-1,23.15,23.15,0,0,0,5.71-2.15,7.24,7.24,0,0,0,2.43-1.66,17.65,17.65,0,0,1,1.08-2.18c.61-.74,1.55-1.18,2.08-2a8.5,8.5,0,0,0,.73-2.11c.37-1.13,1.27-1.6,2.29-2.12a3.44,3.44,0,0,0,1.35-.91C206.7,178.23,206.26,177.7,205.65,177.34Z" style="fill:#ffbda7"></path><path d="M145.11,196.9c-5.06,2.93-7.17,6.92-7.36,10.46-2.05-7.81,6.12-12,6.12-12Z" style="fill:#f0997a"></path><path d="M185.17,180.05a16.82,16.82,0,0,1-7.57,5.43,7.1,7.1,0,0,0,4.78-1A6.39,6.39,0,0,0,185.17,180.05Z" style="fill:#f0997a"></path><path d="M113.69,165.54c10.48,2.06,11.32,5.07,17.2,12.1S145.35,196,145.35,196l15.85-8.21s-.85,2.75,2.19,7.1a13.08,13.08,0,0,0,7.18,5.26s-5.93,5.3-14.74,12.27-12.34,8.11-16.82,5.66-24.87-22.32-24.87-22.32Z" style="fill:#37474f"></path><path d="M145.35,196a14.39,14.39,0,0,0-6.91,10.54c-.69-8.64,5.6-12.27,5.6-12.27Z" style="fill:#263238"></path><path id="freepik--Chest--inject-18" d="M65.71,235c-3.34-2.71-.74-7.58,1.1-21.26.56-4.21-2.14-14.66-2.14-14.66s7.82-11.79,5.29-32.26l12.14-2.28,19.75-.29,11.36,1.91a73.73,73.73,0,0,1,10.51,12.41c5.5,8,5,18.26-.94,24.6a124,124,0,0,0,.27,14.72c.74,6.83,4.55,13.49.58,16.86C112,244.63,81.44,245.32,65.71,235Z" style="fill:#407BFF"></path><g id="freepik--head--inject-18"><g id="freepik--head--inject-18"><g id="freepik--head--inject-18"><path d="M79.67,149.83a6.51,6.51,0,0,1-5.83-2.17c-3.07-3.32-3.36-6.69-1.93-8.94,1.17-1.85,4.07-3,6.1-1.78s2.25,2.42,3.07,3.93,2.93.33,2.22-5.74c4.21-1.95,3.53-8.89,5.81-11.72,3.57-4.43,9.45-3.29,11.36-2.24a7.76,7.76,0,0,1,8-.51c2.84,1.49,4.73,4.62,5.73,15.4,1,11,.06,16.64-3.23,19.62a13.53,13.53,0,0,1-9.27,3.49l.15,5.11S113.1,175,98.6,173.9a22.8,22.8,0,0,1-16.43-9.13l-.1-16.66S81.83,149.43,79.67,149.83Z" style="fill:#ffbda7"></path><path d="M103.48,147.88a3.24,3.24,0,0,1-3.81,2.5,3.18,3.18,0,0,1-2.54-3.74Z" style="fill:#b16668"></path><path d="M97.11,147.68a3.19,3.19,0,0,0,2.56,2.7,3.42,3.42,0,0,0,1.15,0A3.28,3.28,0,0,0,97.11,147.68Z" style="fill:#f28f8f"></path><path d="M110.51,127.67l-3.82,2.19a2.15,2.15,0,0,1,.78-3A2.26,2.26,0,0,1,110.51,127.67Z" style="fill:#263238"></path><path d="M96.62,129.69l-4.57-1.13a2.2,2.2,0,0,1,2.73-1.74A2.51,2.51,0,0,1,96.62,129.69Z" style="fill:#263238"></path><path d="M93.91,135.81a1.72,1.72,0,1,0,1.72-1.72A1.72,1.72,0,0,0,93.91,135.81Z" style="fill:#263238"></path><path d="M107.73,135.29a1.72,1.72,0,1,0,1.72-1.72A1.72,1.72,0,0,0,107.73,135.29Z" style="fill:#263238"></path><path d="M116.36,130.31l-.83-.06a25.41,25.41,0,0,0-8.21.61c-2.57.88-3.44,1.77-4.89,1.84s-2.6-.74-5.45-1.38a29.21,29.21,0,0,0-8.82.14l-.87.13A1.3,1.3,0,0,0,86.4,133a3.21,3.21,0,0,0,1,1.58,2.34,2.34,0,0,1,.33.64,27.63,27.63,0,0,0,1.38,4.42,5.81,5.81,0,0,0,1.23,1.56,6.85,6.85,0,0,0,.61.45l.35.19a5.19,5.19,0,0,0,1,.41l.17,0a2.61,2.61,0,0,0,.27.06l.28.06a7.69,7.69,0,0,0,.88.09h.84c3.62-.14,5-1.85,5.79-3.58s.39-4.11,2.06-4.18h.16l.15,0c1.25.22,1.25,2.42,2.13,4a6.66,6.66,0,0,0,1.3,1.68,3.47,3.47,0,0,0,.29.25l.16.12.17.11.15.1a.76.76,0,0,1,.16.1l.13.06.09.05a5.59,5.59,0,0,0,1.48.49l.13,0a7.68,7.68,0,0,0,1.77.09c3.38-.16,4.42-2.1,4.89-3.32a27.46,27.46,0,0,0,.73-4.51,1.24,1.24,0,0,1,.27-.6,3.05,3.05,0,0,0,.65-1.69A1.41,1.41,0,0,0,116.36,130.31Zm-16.9,7.08a4.81,4.81,0,0,1-1.09,2.41h0a5.07,5.07,0,0,1-3.85,1.52,4.62,4.62,0,0,1-3.9-1.55l-.13-.17a.83.83,0,0,1-.12-.16l-.11-.15-.08-.14-.07-.11-.06-.1-.09-.17h0l-.22-.49h0l-.12-.29c-.06-.17-.11-.33-.15-.47l0-.09,0-.09c-.36-1.17-.85-3.48-.26-4s2.19-1.17,4.9-1l.28,0a10.39,10.39,0,0,1,1.25.14l.48.09c.43.09.84.2,1.22.32l.38.13.41.16.08,0,.15.07a2.65,2.65,0,0,1,.85.59C99.73,134.52,99.68,136.06,99.46,137.39Zm15.65-1.19a4.92,4.92,0,0,1-2.28,3.9,4.74,4.74,0,0,1-2,.5,4.6,4.6,0,0,1-4.14-1.59l0,0-.08-.11-.09-.12,0-.06-.12-.19-.12-.21-.06-.1s0,0,0-.06l0-.09,0-.07a7.32,7.32,0,0,1-.32-.87c-.36-1.3-.61-2.83-.16-3.58s2.39-1.63,4.29-1.94a11.43,11.43,0,0,1,1.22-.14h1.1l.34,0a5.5,5.5,0,0,1,.62.08l.15,0h0l.1,0,.15,0,.18.05.3.09.06,0a2.69,2.69,0,0,1,.69.38C115.46,132.66,115.29,135,115.11,136.2Z" style="fill:#37474f"></path><path d="M108.45,142.34,102.31,145,101,137.21c.23-1.15.45-2.35,1.46-2.44Z" style="fill:#f0997a"></path><path d="M87.48,132.49,78,136.94a9.77,9.77,0,0,1,1.47,1.15l8.24-3.68Z" style="fill:#37474f"></path></g></g><path d="M101.7,159.17C96,159,88.43,157,86.39,153.4c1.13,3.87,5.13,5.87,8.31,6.75a33.59,33.59,0,0,0,7,1.18Z" style="fill:#f0997a"></path></g><path d="M101.88,162.85l0,1.43a61.66,61.66,0,0,1,13.94,15.77c5.92,9.76,5.33,21.76,5.63,34.35s.57,39.53.57,39.53,5.46-1.12,8.32-5.4c0-7-3.4-32.41-4.14-38.43s1.28-9.94,2.26-15.49,1.24-15.71-14.74-29.07Z" style="fill:#263238"></path><path d="M82.16,163.21s5.39,12,5.56,24.31-4.85,71.83-4.85,71.83-17.34-.73-25.93-4.69c2-9.66,6.22-28.42,7.8-34.51s1.91-8,.45-14.33a52.51,52.51,0,0,0-2.52-8.7l6.74-30.93Z" style="fill:#263238"></path><g id="freepik--arm--inject-18"><path d="M104,192.81c3.61-2.4,5.42-3.32,7.07-3.7s7.47-2.46,9.69-2.9c1.4-.28,1.87,1.92,0,3.34-1.41,1.09-5,2.44-6.62,3.2s-4.81,4.28-4.81,4.28Z" style="fill:#f0997a"></path><path d="M54.79,177.35c3.79-7.1,7.6-8.93,15.17-10.5,4.75,8.68,1.24,23.36,1.24,23.36L66.6,207.8s20.62-2,23.05-3.39,9.08-7.8,11.3-9.71c3-2.6,4.44-2.17,5.9-1.89,4.79.93,5.83,1.38,6.82,2.06a2.14,2.14,0,0,1,.86,1.88c1.27.22,3.19.26,3.34,2.34a5.61,5.61,0,0,1,0,1.66,1.36,1.36,0,0,1,.81.5c1,1.26-1,5.37-2.21,6.34-.85.69-2,.72-3.53.45-1.29-.23-.63-1.5-.63-1.5l-1.82,0c-4,2.56-4.48,8-9.72,8.93a37,37,0,0,0-6.38.93C83.07,219.61,64.27,230,54.29,230.36c-9.74.38-9.24-4.68-9.13-10.53C45.26,214.62,51,184.43,54.79,177.35Z" style="fill:#ffbda7"></path><path d="M67.1,205.82l-.5,2c-4.47.92-9.91,6.42-11.08,8.74C56.51,212.82,59.23,207.51,67.1,205.82Z" style="fill:#f0997a"></path><path d="M114.53,196.75l-5.68-1.39,5.59.61A2.13,2.13,0,0,1,114.53,196.75Z" style="fill:#f0997a"></path><path d="M117.88,200.75l-6.56-1.14,6.6.39A3.26,3.26,0,0,1,117.88,200.75Z" style="fill:#f0997a"></path><path d="M111.83,205.58a2.54,2.54,0,0,0,.87-1.21,22.62,22.62,0,0,0,2.31-.05,6.77,6.77,0,0,0,.89-.21,2.39,2.39,0,0,0,1-.55,2,2,0,0,1-.92.71,4,4,0,0,1-1,.3l-.41.78a1.3,1.3,0,0,1,.67.29,1.69,1.69,0,0,1,.53.87,2,2,0,0,0-.64-.74,1.37,1.37,0,0,0-.87-.2,2.87,2.87,0,0,0-1.92,1l-1.82,0A13.31,13.31,0,0,0,111.83,205.58Z" style="fill:#f0997a"></path><path d="M69.41,166.19c-7.46,1.7-13.48,4.22-16.83,14.15s-5.65,21.77-7.15,32.11-1.3,15.22,2,17.2,8.3,2,16-.46a183.68,183.68,0,0,0,18.75-7.72,17.6,17.6,0,0,1-3.44-8.57c-.76-5.49.53-6.86.53-6.86l-11.91,1.32s2.73-10.21,4.54-17.26S72.93,169.18,69.41,166.19Z" style="fill:#37474f"></path><path d="M67.33,207.36c-5,.61-10.82,3.18-12.87,7.43,1.51-7,9.92-9.39,13.48-9.73Z" style="fill:#263238"></path></g></g></g></g></svg>
